<svg width="1024" height="1024" viewBox="0 0 1024 1024" fill="none" xmlns="http://www.w3.org/2000/svg">
<g clip-path="url(#clip0_227_3)">
<path d="M751.121 701.387L752.958 701.474C753.877 704.266 754.811 707.053 755.761 709.835C754.953 709.534 755.059 709.663 754.5 708.971L754.816 709.418C754.593 710.341 754.681 710.807 754.633 711.734C753.462 708.872 751.792 704.345 751.121 701.387Z" fill="#5A1F77"/>
<path d="M816.255 299.902C819.766 304.211 826.901 315.126 829.142 321.133C829.805 322.913 829.722 327.213 829.744 329.153C830.047 355.718 831.591 382.254 831.549 408.835C830.738 407.879 828.044 403.297 827.179 401.892C824.727 397.876 822.187 393.916 819.561 390.017C819.223 373.908 819.759 357.587 819.23 341.534C818.951 333.102 817.667 323.454 817.228 314.925C816.972 309.965 816.077 304.931 816.255 299.902Z" fill="#00F5FF"/>
<path d="M758.01 226.564C761.965 226.556 765.607 230.664 767.68 233.554C770.513 237.503 796.389 266.781 796.949 269.871C800.273 288.225 804.276 315.825 803.422 334.087C800.957 331.925 793.73 288.345 790.576 282.879C780.021 264.582 768.721 244.556 758.01 226.564Z" fill="#00F5FF"/>
<path d="M728.429 186.268C731.348 186.051 735.095 186.243 738.092 186.214C755.55 186.04 768.472 188.933 784.142 196.584C783.597 202.978 784.062 207.383 784.529 213.781C777.903 213.657 737.275 190.825 728.429 186.268Z" fill="#00F5FF"/>
<path d="M810.737 231.234C812.277 231.257 813.954 231.376 815.505 231.453C819.157 241.25 822.304 255.486 824.991 265.84C827.154 274.174 831.424 288.752 832.356 296.8C830.41 294.871 816.403 274.94 816.084 272.933C814.367 262.114 811.777 242.199 810.737 231.234Z" fill="#00F5FF"/>
<path d="M802.339 395.896C805.649 399.765 810.165 406.907 813.223 411.412C818.758 419.566 824.624 428.042 829.764 436.414C829.372 441.285 829.364 446.323 829.276 451.219C829.341 458.254 829.674 467.657 829.449 474.518C828.865 472.467 828.222 470.478 827.926 468.369C825.604 459.402 824.71 447.671 821.376 439.105C815.752 424.66 807.575 410.578 802.339 395.896Z" fill="#00F5FF"/>
<path d="M827.926 468.369C829.924 465.73 828.993 455.935 829.243 451.717L829.276 451.219C829.341 458.254 829.674 467.657 829.449 474.518C828.865 472.467 828.222 470.478 827.926 468.369Z" fill="#00F5FF"/>
<path d="M778.147 225.375C782.497 225.562 793.924 228.786 798.197 230.114C799.985 237.848 800.761 245.459 801.731 253.323C798.852 251.21 780.534 229.096 778.147 225.375Z" fill="#00F5FF"/>
<path d="M735.19 560.231C747.387 560.306 735.498 581.94 730.021 585.673C721.416 585.177 726.16 576.596 728.004 571.541C729.47 567.522 731.717 562.744 735.19 560.231Z" fill="#00F5FF"/>
<path d="M797.545 203.435C800.658 205.441 810.274 214.958 811.224 218.216C806.906 218.341 802.333 218.152 797.995 218.05C797.69 214.368 796.955 206.775 797.545 203.435Z" fill="#00F5FF"/>
<path d="M138 129H231.586H803.632H903.952V219.208V803.622V895H805.118H235.093H138V799.87V225.233V129Z" fill="#00F5FF"/>
<path d="M827.27 833.635C824.18 836.373 820.205 838.89 816.842 841.198C801.565 851.685 782.829 858.343 764.267 859.142C754.927 859.543 744.713 859.066 735.089 859.051L674.14 859.018L481.539 859.022L342.722 858.934L305.053 858.939C291.396 858.955 278.859 859.289 265.333 857.013C245.68 853.707 225.141 843.515 210.323 830.33C189.123 811.122 176.255 784.399 174.458 755.848C173.739 743.118 174.229 726.518 174.221 713.349C174.085 685.387 174.16 657.423 174.443 629.462L174.359 426.966L174.433 319.394L174.286 287.448C174.225 276.822 173.836 267.823 175.456 257.086C178.547 236.6 187.486 217.667 201.188 202.158C203.351 199.709 208.679 195.69 211.186 193.421C230.182 176.231 257.335 165.575 282.966 165.133C291.414 164.987 300.198 165.031 308.949 165.09C323.23 165.269 337.511 165.296 351.792 165.171L592.451 165.321L710.937 164.981L741.158 164.975C752.778 164.965 764.183 164.736 775.554 166.708C821.312 174.714 858.16 209.607 865.258 256.043C867.511 270.786 866.878 283.829 866.866 298.644L866.736 364.974L866.925 606.475L866.961 708.567L866.942 737.261C866.927 747.609 867.206 756.876 865.298 767.24C862.274 783.663 855.287 800.917 845.555 814.536C842.392 818.963 838.42 823.12 834.725 827.073C820.416 789.455 807.038 751.464 792.494 713.934C789.522 706.265 787.009 698.581 783.461 691.134C778.366 694.269 773.097 698.14 767.717 701.474C768.658 704.266 769.615 707.053 770.588 709.835C777.073 725.036 782.806 741.071 789.244 756.389L805.146 794.125C808.211 801.445 811.675 809.376 814.352 816.817C809.545 815.469 804.946 813.318 800.211 811.79C770.582 802.232 740.083 795.389 710.453 785.825C704.21 783.81 697.955 782.202 691.721 780.025C688.64 784.087 683.864 788.808 680.338 793.005C713.962 803.465 747.817 813.168 781.877 822.105C796.687 826.049 812.289 831.284 827.27 833.635Z" fill="#610675"/>
<path d="M449.245 412.915C457.126 419.364 466.127 428.911 473.501 436.306C487.131 450.133 500.868 463.853 514.713 477.465C559.676 521.117 605.519 563.853 652.211 605.649C681.122 630.99 710.351 655.966 739.891 680.57C744.775 684.643 763.367 697.509 765.836 701.387L767.717 701.474C768.658 704.266 769.615 707.053 770.587 709.835C769.76 709.535 769.869 709.663 769.296 708.971L769.619 709.419C769.391 710.341 769.481 710.807 769.432 711.734C770.428 716.001 776.653 731.126 778.453 736.052C786.936 759.277 796.477 781.73 804.418 805.202C802.91 804.216 801.445 803.165 800.026 802.052C785.295 790.624 772.08 774.9 759.269 761.47C742.733 744.246 725.983 727.229 709.023 710.421L525.343 529.494C510.548 514.971 495.487 500.721 480.169 486.751C473.412 480.54 465.112 473.138 458.518 466.549C458.131 466.162 457.94 464.34 457.859 463.688C457.448 464.76 457.385 464.911 456.783 465.883C456.177 460.816 454.909 455.686 453.836 450.676L454.159 450.749L454.59 451.15L454.691 450.958C454.544 449.525 454.673 449.288 455.284 447.978C453.01 436.492 451.521 424.544 449.245 412.915Z" fill="#00F5FF"/>
<path d="M455.283 447.978C456.199 453.213 457.147 458.421 457.859 463.688C457.448 464.76 457.384 464.911 456.782 465.883C456.176 460.816 454.909 455.686 453.836 450.676L454.158 450.749L454.589 451.15L454.691 450.958C454.544 449.525 454.673 449.288 455.283 447.978Z" fill="#5A1F77"/>
<path d="M380.466 445.183C387.638 436.356 400.589 424.25 409.042 416.12C419.458 406.1 428.114 396.47 438.045 386.273C443.45 407.315 448.201 429.909 453.836 450.676C454.909 455.685 456.177 460.816 456.783 465.883C448.256 463.969 434.822 459.388 426.035 456.843C410.942 452.587 395.747 448.699 380.466 445.183Z" fill="#00F5FF"/>
<path d="M402.234 458.216C405.355 458.715 408.565 459.322 411.644 460.033C426.747 463.515 442.006 465.975 457.198 468.925C458.991 470.677 460.714 472.987 462.395 474.886C478.155 492.686 494.147 510.614 510.762 527.601C564.167 581.26 618.033 634.458 672.356 687.189L705.501 719.211C715.51 729.028 725.234 738.969 735.642 748.414C746.795 758.673 758.147 768.713 769.692 778.529C774.302 782.523 792.363 798.062 795.583 802.567C765.257 792.459 733.631 784.41 702.844 775.714C698.569 774.506 694.138 773.68 689.944 772.199C681.611 762.644 673.315 750.605 664.879 740.928C655.885 730.611 646.748 720.102 637.677 709.872C586.445 653.098 534.648 596.837 482.291 541.098C472.555 530.539 462.698 520.275 452.639 510.027C446.617 503.891 440.766 497.352 434.689 491.29L412.907 469.658C409.812 466.526 404.718 461.588 402.234 458.216Z" fill="#00F5FF"/>
<path d="M490.139 269.428C513.729 269.992 532.288 277.437 541.714 300.625C547.239 314.214 547.029 325.205 546.703 339.51C539.573 330.941 531.551 321.713 519.538 321.917C508.465 322.105 504.277 327.713 496.987 334.988C491.031 340.905 485.147 346.893 479.335 352.951C469.602 362.975 459.373 372.807 449.546 382.874C449.599 379.582 449.539 378.753 448.343 375.682C452.79 369.827 458.441 364.259 463.582 358.952C469.261 353.099 474.892 347.199 480.474 341.255C492.996 327.975 496.684 324.625 491.18 305.659C499.156 305.158 506.714 304.577 514.253 307.768C515.346 308.231 518.943 310.027 519.799 309.802C508.476 302.106 503.205 300.304 489.384 299.932L486.283 291.229C503.909 290.117 516.82 296.72 530.742 306.162C519.549 292.201 506.405 283.992 487.928 284.262C482.64 284.339 477.376 285.082 472.094 285.441C473.962 288.541 476.201 291.41 477.963 294.707C482.627 303.442 484.104 313.183 485.528 322.821C481.532 327.633 474.604 334.219 470.01 338.996L432.105 378.172C409.213 402.469 385.955 426.418 362.338 450.01C354.826 457.574 347.266 465.089 339.657 472.555C334.501 477.638 324.551 488.879 317.635 490.483C303.938 493.661 294.75 488.164 283.642 480.919C285.729 493.28 287.311 508.914 292.558 520.24C298.458 531.286 306.716 535.588 317.954 539.976C302.896 528.889 294.797 518.43 297.447 498.694L304.165 500.661C303.849 510.295 308.066 517.548 315.428 523.509C311.216 516.375 310.669 509.523 312.106 501.495C315.826 500.835 323.946 499.957 327.114 497.666C336.329 491.003 345.208 479.981 353.445 471.954C360.826 464.763 368.012 457.745 375.25 450.639C376.47 451.896 377.64 452.838 378.975 453.956C375.331 459.394 370.679 463.725 366.185 468.47C360.911 473.937 355.871 479.533 350.468 484.891C340.211 495.064 325.624 506.522 325.849 522.481C326.022 534.811 339.506 542.574 347.598 550.029C336.345 550.51 327.509 553.28 315.613 552.205C283.362 549.29 270.98 517.795 272.31 489.075C272.861 477.182 273.801 465.685 274.94 453.896C275.925 455.056 276.939 456.192 277.978 457.304C284.425 464.288 305.301 483.404 315.437 473.764C335.766 454.434 355.437 433.988 374.678 413.564C394.055 393.349 413.704 373.396 433.618 353.711C445.661 341.588 458.696 327.472 471.067 316.001C468.02 304.555 464.226 295.473 456.677 286.154C453.806 282.609 450.724 279.382 447.889 275.788C460.45 272.617 477.344 269.832 490.139 269.428Z" fill="#00F5FF"/>
<path d="M455.413 385.021C456.946 385.564 501.481 430.937 507.121 436.39L599.747 525.679C616.202 541.264 631.978 556.272 648.974 571.365C676.54 595.789 704.311 619.98 732.286 643.935L764.257 670.684C769.533 675.106 775.43 679.83 780.448 684.472C777.428 686.647 774.509 688.534 771.389 690.546L766.537 693.564C731.746 667.292 697.841 639.867 664.878 611.335C608.297 562.871 553.943 511.865 501.982 458.476L471.627 427.468C456.931 412.386 454.932 412.624 449.289 391.855C451.598 389.454 453.307 387.591 455.413 385.021Z" fill="#00F5FF"/>
<path d="M390.124 456.597C391.848 458.284 393.668 459.86 395.517 461.408C406.214 470.368 416.257 480.136 426.141 489.996C488.725 553.171 549.669 617.95 608.913 684.268C627.511 705.175 645.68 726.46 663.407 748.111C668.806 754.74 674.172 761.275 679.122 768.252C681.011 770.915 683.209 773.998 685.525 776.235L674.598 788.695C674.338 788.671 674.078 788.647 673.818 788.623C665.619 777.026 635.33 742.044 628.049 733.526C608.32 710.446 589.962 690.879 570.651 669.81C525.885 621.192 480.643 573.014 434.93 525.286C416.8 506.123 396.898 486.793 379.506 467.143C383.004 463.284 386.065 459.905 390.124 456.597Z" fill="#00F5FF"/>
<path d="M242.542 191.24C262.156 190.62 279.406 201.62 287.345 219.496C291.694 229.289 291.922 237.82 290.356 248.23L277.729 250.462C279.264 241.119 279.699 233.379 275.597 224.695C263.878 199.883 230.35 196.848 216.073 221.099C210.944 229.81 209.481 238.085 211.887 247.871C213.717 255.429 218.139 262.107 224.383 266.741C234.321 274.039 243.878 274.264 255.664 272.439C253.715 276.999 253.631 280.292 253.464 285.188C238.718 287.753 225.814 285.95 214.037 276.097C204.551 268.157 198.675 256.721 197.745 244.385C195.513 215.833 213.649 193.243 242.542 191.24Z" fill="#00F5FF"/>
<path d="M239.439 209.253C255.405 206.911 270.273 217.879 272.751 233.825C275.228 249.771 264.39 264.734 248.466 267.348C232.348 269.995 217.165 258.993 214.657 242.853C212.149 226.713 223.279 211.622 239.439 209.253Z" fill="#00F5FF"/>
<path d="M241.417 216.254C247.213 215.684 251.894 215.881 257.084 219.161C267.288 225.529 268.523 241.394 262.133 250.939C250.697 268.021 225.102 264.1 221.025 243.102C220.519 239.452 220.737 235.699 221.025 232.045C221.948 239.222 224.727 246.777 230.559 251.403C234.275 254.389 239.068 255.689 243.783 254.989C264.201 251.814 264.776 223.521 245.126 218.338C243.53 217.917 239.921 218.177 238.758 217.399C239.5 216.61 240.341 216.536 241.417 216.254Z" fill="#610675"/>
<path d="M386.899 349.043C397.519 347.415 401.227 355.565 407.853 362.349C396.189 364.307 388.79 366.064 379.263 373.797C370.065 381.262 366.13 388.492 363.159 399.792L361.678 406.702C357.474 402.724 348.918 395.588 348.385 389.878C346.517 369.876 368.929 351.669 386.899 349.043Z" fill="#00F5FF"/>
<path d="M351.866 311.299C352.55 311.217 353.239 311.187 353.927 311.21C359.263 311.339 368.117 321.102 372.003 325.097C357.914 326.03 347.969 330.7 337.801 340.572C331.109 347.069 327.144 352.983 325.071 362.089C324.766 364.087 324.587 366.247 324.377 368.268C320.318 364.595 311.208 356.263 311.108 350.855C310.735 330.66 334.192 313.178 351.866 311.299Z" fill="#00F5FF"/>
<path d="M368.507 330.31C378.721 329.076 383.826 336.456 389.645 343.672C382.914 344.277 375.771 345.36 369.716 348.504C357.024 355.096 348.575 364.656 343.946 378.017C343.296 380.614 342.773 383.401 342.234 386.038C329.415 375.247 325.215 367.676 335.401 352.575C343.097 341.107 354.983 333.113 368.507 330.31Z" fill="#00F5FF"/>
<path d="M314.418 275.003C323.886 273.911 329.347 281.524 334.448 288.174C316.145 289.116 294.121 304.925 289.28 322.853C288.667 325.189 288.464 327.335 288.174 329.728C284.859 326.663 275.105 317.274 275.144 313.451C275.336 294.6 297.853 277.129 314.418 275.003Z" fill="#00F5FF"/>
<path d="M333.84 292.961C342.121 292.445 348.044 301.229 353.059 307.035C332.285 307.681 313.597 322.404 306.945 341.884C306.525 343.843 306.173 346.225 305.824 348.231C302.084 344.649 293.432 336.924 293.43 331.959C293.421 313.184 317.268 294.701 333.84 292.961Z" fill="#00F5FF"/>
<path d="M296.873 258.545C305.99 257.672 310.345 263.421 315.319 269.956C311.268 270.121 307.265 270.897 303.446 272.259C289.864 276.971 278.345 288.445 272.099 301.267C271.216 303.467 270.386 306.471 269.676 308.799C247.934 289.573 275.376 261.529 296.873 258.545Z" fill="#00F5FF"/>
<path d="M196.838 547.809C198.095 553.253 209.166 687.965 208.707 689.397L208.146 688.825C204.719 681.11 196.552 668.109 194.254 661.209C193.099 657.738 194.644 633.653 194.726 629.053C194.939 609.061 195.385 589.073 196.063 569.092C196.216 564.413 196.12 551.841 196.838 547.809Z" fill="#00F5FF"/>
<path d="M193.309 729.521C193.904 729.86 210.747 747.711 211.265 749.072C215.284 759.638 223.135 785.996 225.622 796.356C220.154 795.589 214.598 794.745 209.111 794.223C204.778 780.313 200.878 766.271 197.417 752.12C195.818 745.497 193.525 736.202 193.309 729.521Z" fill="#00F5FF"/>
<path d="M219.034 655.06C220.182 655.98 231.823 704.431 234.504 711.33C236.664 716.883 242.862 723.313 246.529 728.27L265.495 753.858C271.423 761.744 278.036 770.293 283.456 778.478C282.328 778.056 281.386 777.057 280.513 776.227C262.987 759.479 246.454 741.723 230.994 723.05C229.502 721.212 224.593 715.381 224.112 713.527C222.948 709.033 222.485 701.921 222.091 697.21C220.938 683.409 219.371 668.874 219.034 655.06Z" fill="#00F5FF"/>
<path d="M638.291 187.101C642.097 186.709 651.174 186.878 655.348 186.893C664.406 186.926 674.162 186.617 683.137 186.959C699.45 197.718 716.261 205.314 732.083 215.861C729.278 215.481 717.321 211.436 713.674 210.395C695.629 205.24 677.666 199.802 659.793 194.082C653.584 192.09 644.087 189.446 638.291 187.101Z" fill="#00F5FF"/>
<path d="M222.852 738.54C225.072 740.004 261.905 792.234 266.507 798.587C258.18 797.12 247.239 794.48 239.224 791.865C233.91 773.353 228.679 756.777 222.852 738.54Z" fill="#00F5FF"/>
<path d="M243.408 805.953C245.717 806.077 247.753 807.024 249.958 807.644C277.729 815.456 305.275 826.153 330.875 839.55C321.938 839.978 310.582 839.692 301.523 839.599C293.238 834.439 285.807 830.737 277.377 826.004C265.945 819.508 254.62 812.823 243.408 805.953Z" fill="#00F5FF"/>
<path d="M281.512 795.26C290.148 797.032 297.993 800.722 306.248 803.274C324.407 808.885 341.905 817.057 359.995 822.504C358.688 822.993 357.109 823.453 355.76 823.886C350.657 825.458 346.166 826.752 340.835 827.538C325.679 818.922 308.823 811.54 293.676 802.549C291.088 801.011 283.504 797.097 281.512 795.26Z" fill="#00F5FF"/>
<path d="M404.514 368.493L405.163 368.582C405.064 370.337 373.591 401.695 369.002 406.134C368.703 406.333 368.904 406.248 368.348 406.188C368.091 404.737 368.539 401.235 368.842 399.742C372.075 383.859 389.239 370.753 404.514 368.493Z" fill="#00F5FF"/>
<path d="M198.812 466.47C199.574 468.773 200.632 474.145 201.172 476.835C202.536 483.626 206.291 495.133 206.445 501.447C206.496 503.531 203.692 517.711 203.199 518.455C200.46 508.622 197.581 498.83 194.561 489.081C196.564 480.878 197.258 474.421 198.812 466.47Z" fill="#00F5FF"/>
<path d="M658.475 475.333C660.008 475.197 661.405 475.195 662.177 476.889C665.122 483.345 664.122 492.742 662.93 499.551C662.317 503.05 660.753 505.051 658.004 506.78C653.79 505.779 653.316 500.461 652.884 496.838C652.022 489.624 652.311 480.287 658.475 475.333Z" fill="#00F5FF"/>
<path d="M558.552 737.697C561.846 737.572 572.243 737.85 570.068 743.07C568.907 745.856 553.402 748.391 550.246 749.054C546.944 749.579 540.195 750.419 538.8 746.366C539.144 738.798 553.121 737.954 558.552 737.697Z" fill="#00F5FF"/>
<path d="M557.534 414.322C561.013 414.592 562.851 416.468 564.718 419.586C567.869 424.851 572.94 431.855 572.393 438.269C572.269 439.712 570.784 440.646 569.669 441.327C564.423 440.968 554.945 422.624 554.661 417.418C554.598 416.284 556.664 414.904 557.534 414.322Z" fill="#00F5FF"/>
<path d="M425.64 628.77C430.606 628.234 447.844 629.837 450.452 634.276C450.553 637.239 449.009 637.647 446.528 638.513C441.016 638.916 425.718 638.878 421.532 634.762C418.885 632.159 423.599 629.633 425.64 628.77Z" fill="#00F5FF"/>
<path d="M378.825 831.041C385.872 834.023 393.855 836.828 401.085 839.679C394.038 840.494 383.031 840.115 375.677 840.039C368.089 839.997 360.117 839.697 352.509 839.52C358.983 838.187 372.389 833.468 378.825 831.041Z" fill="#00F5FF"/>
<path d="M218.634 810.029C225.839 810.921 258.112 830.826 265.195 836.269C251.467 833.935 227.79 820.758 218.634 810.029Z" fill="#00F5FF"/>
<path d="M192.25 688.065C194.067 690.759 203.513 718.013 204.716 722.33C202.391 720.564 193.979 705.02 192.756 701.55C192.112 699.721 192.214 690.76 192.25 688.065Z" fill="#00F5FF"/>
<path d="M724.39 190.408C732.811 194.672 740.23 198.791 748.302 203.731C752.67 206.404 757.093 208.661 761.429 211.529L760.435 212.724C746.303 206.026 736.391 200.097 723.35 191.509L724.39 190.408Z" fill="#00F5FF"/>
<path d="M723.35 191.509C720.858 189.817 719.039 188.579 716.752 186.645C719.367 187.841 721.829 189.101 724.391 190.408L723.35 191.509Z" fill="#00F5FF"/>
<path d="M746.818 211.529C748.918 212.79 749.987 213.627 751.907 215.138C749.623 214.361 747.991 213.857 745.848 212.724L746.818 211.529Z" fill="#00F5FF"/>
</g>
<defs>
<clipPath id="clip0_227_3">
<rect x="138" y="129" width="748" height="766" rx="124" fill="white"/>
</clipPath>
</defs>
</svg>
