<svg width="1792" height="1024" viewBox="0 0 1792 1024" fill="none" xmlns="http://www.w3.org/2000/svg">
<rect width="1792" height="1024" fill="black"/>
<path d="M1371.12 424.527L1495.88 424.498L1495.72 469.071L1421.38 469.237L1421.45 478.791C1443.01 478.677 1464.56 478.691 1486.1 478.833C1486.25 492.885 1486.52 506.916 1486.06 520.963L1429.09 520.909C1427.44 520.917 1425.62 521.044 1423.96 521.121C1420.53 523.929 1420.34 527.348 1423.04 530.652C1431.38 531.781 1442.93 531.313 1451.61 531.293L1495.72 531.263L1495.81 575.508L1371.13 575.555L1371.12 424.527Z" fill="#0AFAFB"/>
<path d="M1378.2 431.524L1488.77 431.563C1488.86 441.578 1488.69 451.992 1488.65 462.037L1413.98 462.011L1414 485.795L1479.41 485.837L1478.98 513.877C1461.13 513.817 1443.26 513.939 1425.42 514.24L1414.4 514.345L1414.1 538.128L1488.61 538.087C1488.54 548.063 1488.7 558.297 1488.76 568.292C1452.5 567.671 1414.81 568.235 1378.45 568.159C1377.68 523.387 1378.44 476.568 1378.2 431.524Z" fill="#0A0016"/>
<path d="M1449.02 492.469C1449.73 492.832 1449.52 492.781 1450.02 493.561C1446.8 498.208 1442.18 502.28 1438.08 506.228L1397.08 506.177C1397.09 515.651 1397.52 540.744 1396.16 548.944C1395.9 548.837 1395.62 548.781 1395.41 548.625C1392.9 546.853 1393.94 509.088 1393.94 503.404L1436.89 503.519C1440.84 500.111 1445.12 496.024 1449.02 492.469Z" fill="#02D6E9"/>
<path d="M1406.16 546.528C1425.06 544.465 1449.38 547.228 1468.72 546.496C1470.96 546.412 1470.98 547.088 1472.18 548.659C1465.41 549.496 1412.33 549.539 1407.22 548.289L1406.16 546.528Z" fill="#FBA01A"/>
<path d="M1384.42 441.536C1384.85 441.455 1386.4 441.159 1386.78 441.192C1393.76 441.804 1421.2 438.935 1425.74 442.938C1420.93 444.306 1387.89 444.938 1384.42 441.536Z" fill="#02D6E9"/>
<path d="M1477.22 440.743C1478.56 440.46 1477.85 440.467 1479.33 441.231L1479.26 443.131C1476.88 444.39 1453.48 443.708 1448.78 443.708C1446.22 443.498 1447.25 444.019 1445.56 442.108C1448.82 439.894 1472.18 440.76 1477.22 440.743Z" fill="#E79011"/>
<path d="M1462.74 497.573C1464.46 496.523 1466.64 496.512 1468.37 497.547C1470.1 498.581 1471.12 500.491 1471.01 502.507C1470.9 504.523 1469.69 506.315 1467.85 507.16C1465.24 508.367 1462.13 507.321 1460.77 504.779C1459.42 502.235 1460.29 499.073 1462.74 497.573Z" fill="#FBA01A"/>
<path d="M1393.54 557.347C1394.88 556.041 1397.01 556.017 1398.37 557.292C1399.74 558.567 1399.86 560.691 1398.66 562.119C1397.82 563.105 1396.52 563.552 1395.25 563.283C1394 563.013 1392.98 562.069 1392.62 560.828C1392.26 559.587 1392.61 558.248 1393.54 557.347Z" fill="#E79011"/>
<path d="M1234.34 424.587L1357.4 424.555L1357.62 469.047L1284.38 469.141L1284.33 481.945L1355.12 481.709L1355.25 501.211L1355.2 525.216L1283.65 525.381L1283.53 575.35L1234.41 575.493L1234.34 424.587Z" fill="#0AFAFB"/>
<path d="M1241.66 431.607L1350.3 431.544C1350.37 441.271 1350.21 452.399 1350.85 462L1276.9 462.139L1276.76 489.039C1300.51 488.729 1324.26 488.699 1348.01 488.947C1347.93 498.352 1347.61 508.78 1347.89 518.104L1276.51 518.101L1276.57 568.104L1241.62 568.02L1241.71 455.161L1241.24 453.756C1242 446.984 1241.72 438.56 1241.66 431.607Z" fill="url(#paint0_linear_317_252)"/>
<path d="M1241.24 453.756C1245.52 452.06 1324.65 452.236 1326.47 453.323L1326.14 454.72C1313.79 455.736 1294.3 455.289 1281.42 455.296C1270.35 455.301 1252.32 455.863 1241.71 455.161L1241.24 453.756Z" fill="#02D6E9"/>
<path d="M1333.62 508.456L1334.76 508.477C1335.38 510.757 1335.52 509.725 1334.52 511.693C1311.98 510.988 1288.12 511.312 1265.49 511.262L1265.93 551.273L1264.13 550.701C1262.13 547.434 1262.84 515.55 1262.79 508.981L1309.18 508.972C1315.46 508.969 1327.77 509.278 1333.62 508.456Z" fill="#FBA01A"/>
<path d="M1242.52 498.381C1259.64 497.251 1280.1 498.315 1297.53 497.88C1303.18 497.74 1326 497.601 1330.32 498.376L1331.44 500.28C1311.32 500.557 1291.2 500.676 1271.07 500.633C1265.61 500.639 1248.21 501.02 1243.46 500.337L1242.52 498.381Z" fill="#02D6E9"/>
<path d="M1246.44 439.057L1247.15 439.317C1247.52 439.447 1247.88 439.557 1248.24 439.701C1258.85 443.959 1312.51 439.165 1329.19 440.759C1331.59 440.987 1331.68 441.161 1333.23 443.007C1314.7 443.761 1293.84 442.544 1275.1 443.184C1266.6 443.473 1257.6 442.945 1249.11 443.941C1247.68 444.109 1248.48 444.215 1247.03 443.267L1246.44 439.057Z" fill="#FBA01A"/>
<path d="M1261.72 555.4C1262.95 554.296 1264.7 553.99 1266.23 554.613C1267.77 555.234 1268.81 556.676 1268.93 558.326C1269.04 559.977 1268.21 561.549 1266.77 562.378C1264.85 563.49 1262.4 562.969 1261.1 561.17C1259.79 559.373 1260.06 556.881 1261.72 555.4Z" fill="#02D6E9"/>
<path d="M1166.39 424.559L1216.23 424.512L1216.27 575.533L1166.42 575.384C1165.85 525.509 1166.3 474.515 1166.39 424.559Z" fill="#0AFAFB"/>
<path d="M1173.56 431.582L1208.99 431.519C1209.59 476.768 1209.09 522.841 1209.24 568.18L1173.93 568.301C1174.57 523.691 1173.66 476.48 1173.56 431.582Z" fill="url(#paint1_linear_317_252)"/>
<path d="M1179.33 442.241C1180.49 442.912 1181.63 443.196 1181.65 444.756C1181.93 479.548 1182.57 514.549 1181.44 549.332C1181.44 549.332 1180.05 551.431 1179.92 551.628C1178.43 545.705 1178.42 449.56 1179.33 442.241Z" fill="#FBA01A"/>
<path d="M1195.59 466.995L1199.62 467.751C1201.06 469.599 1200.73 468.565 1200.53 470.983L1198.25 472.849C1197.32 477.224 1197.79 494.404 1197.83 499.395L1192.99 504.513C1193.36 523.652 1193.33 542.796 1192.9 561.933L1191.95 563.096L1190.67 562.786C1189.08 558.039 1189.86 510.44 1189.85 503.233L1195.32 498.401C1195.25 487.932 1195.34 477.461 1195.59 466.995Z" fill="#02D6E9"/>
<path d="M1178.28 556.475C1179.22 555.567 1180.58 555.237 1181.83 555.613C1183.09 555.989 1184.04 557.012 1184.33 558.289C1184.62 559.566 1184.2 560.9 1183.23 561.778C1181.76 563.109 1179.49 563.013 1178.14 561.564C1176.79 560.115 1176.85 557.848 1178.28 556.475Z" fill="#02D6E9"/>
<path d="M1031.22 424.538L1080.64 424.504L1080.51 531.201L1152.31 531.175L1152.33 575.553C1122.55 574.951 1090.75 575.544 1060.8 575.565C1051.14 565.363 1041.35 555.288 1031.43 545.343L1031.22 424.538Z" fill="#0AFAFB"/>
<path d="M1038.35 431.523C1050.05 431.648 1061.95 431.535 1073.67 431.523L1073.55 538.268C1096.89 538.284 1121.84 539.591 1144.97 538.352C1145.09 548.073 1144.89 558.219 1144.83 567.976C1139.67 568.495 1124.58 568.176 1118.46 568.209L1063.93 568.547L1038.62 542.313L1038.35 431.523Z" fill="#0A0016"/>
<path d="M1044.89 520.068C1046.02 520.502 1046.12 520.691 1047.14 521.383C1048.12 525.919 1047.57 532.865 1047.41 537.685C1052.79 543.771 1062.06 553.543 1068.04 558.692C1075.14 558.501 1099.14 557.501 1104.68 559.008L1105.88 561.489C1093.78 562.007 1079.8 561.671 1067.54 561.612C1063.23 558.188 1049.38 543.42 1044.77 538.816C1044.73 532.567 1044.76 526.316 1044.89 520.068Z" fill="#02D6E9"/>
<path d="M1045.78 439.623L1047.87 440.383C1050.15 443.94 1049.01 478.026 1048.82 484.54C1045.43 483.2 1046.28 477.562 1046.28 474.215C1046.29 462.652 1046.17 451.179 1045.78 439.623Z" fill="#02D6E9"/>
<path d="M1130.63 554.543C1132.8 552.765 1136 553.076 1137.78 555.24C1139.57 557.404 1139.27 560.604 1137.11 562.397C1134.94 564.199 1131.73 563.896 1129.93 561.721C1128.14 559.548 1128.45 556.331 1130.63 554.543Z" fill="#E79011"/>
<path d="M1111.25 557.779C1115 557.52 1119.14 556.416 1121.76 559.201L1121.53 562.288C1117.45 562.433 1115.03 563.108 1111.94 561.149L1111.25 557.779Z" fill="#FBA01A"/>
<path d="M877.908 424.467L934.151 424.385C947.307 424.373 968.041 423.499 980.045 426.528C989.03 428.793 997.236 433.451 1003.79 440.004C1014.09 450.271 1019.82 464.261 1019.67 478.808C1019.65 496.023 1012.63 511.649 998.606 521.981C981.77 534.384 958.836 531.709 938.837 531.573L938.767 489.636C946.015 489.795 976.9 492.796 970.485 476.831C969.107 473.4 967.09 470.413 963.021 470C953.067 468.992 942.803 469.436 932.751 469.496C916.845 469.657 900.939 469.597 885.035 469.316C885.875 500.899 885.228 536.204 885.017 568.021L921.139 568.042C921.064 557.524 918.936 494.075 922.789 489.255C925.532 488.931 924.405 488.792 927.196 490.233C929.005 492.967 928.189 505.544 928.176 509.729L928.288 575.345L877.801 575.19C877.161 538.267 877.755 499.036 877.888 462.057L932.807 462.015C942.999 461.979 954.167 461.488 964.132 462.672C977.086 464.504 982.165 482.084 973.12 491.135C966.148 498.111 954.712 496.78 945.663 496.692L945.735 524.648C954.109 524.731 962.998 525.127 971.313 524.563C1010.84 521.881 1026.18 472.621 999.354 445.363C993.525 439.425 986.168 435.217 978.094 433.205C968.138 430.767 947.728 431.488 936.793 431.527L884.912 431.539C884.972 436.048 885.624 445.24 883.652 448.739C880.955 449.168 880.599 449.411 878.281 448.269C877.172 444.16 877.819 429.399 877.908 424.467Z" fill="#0AFAFB"/>
<path d="M917.851 452.039C922.811 451.395 934.715 451.649 940.168 451.667L980.704 451.841C988.285 459.297 995.774 466.847 1003.17 474.487C1003.45 481.023 1003.43 487.943 1003.5 494.517C996.316 501.925 984.897 516.088 975.998 518.024L974.637 515.915C975.821 512.516 978.518 515.728 981.464 513.089C988.048 507.192 994.542 500.084 1000.64 493.687L1000.77 475.167C993.761 467.985 987.18 461.301 979.83 454.432C964.023 454.624 936.293 454.677 919.755 453.876C919.015 453.161 918.38 452.549 917.851 452.039Z" fill="#FBA01A"/>
<path d="M898.804 514.903L900.052 515.412C902.413 518.684 900.993 558.25 900.66 565.02L899.379 564.954C897.424 561.334 898.496 521.449 898.804 514.903Z" fill="#02D6E9"/>
<path d="M911.567 514.705L913.031 515.32C915.081 518.615 914.249 546.532 913.445 551.814L912.119 550.909C910.236 547.765 911.437 520.112 911.567 514.705Z" fill="#FBA01A"/>
<path d="M909.811 555.413C910.987 554.413 912.617 554.146 914.049 554.718C915.483 555.29 916.481 556.608 916.645 558.141C916.809 559.676 916.112 561.174 914.832 562.036C913.001 563.27 910.525 562.858 909.191 561.1C907.857 559.34 908.129 556.844 909.811 555.413Z" fill="#FBA01A"/>
<path d="M705.375 424.526L761.835 424.434C770.083 437.072 778.511 449.594 787.116 461.991L812.903 424.552L869.839 424.502C852.088 449.428 834.695 474.607 817.664 500.029L869.02 573.569L869.172 574.031L868.515 575.096C850.336 575.571 830.954 575.263 812.686 575.283L787.535 538.816C779.045 550.983 770.621 563.196 762.263 575.455C743.267 575.264 724.27 575.263 705.275 575.451L756.809 500.039C740.027 476.885 721.726 448.474 705.375 424.526Z" fill="#0AFAFB"/>
<path d="M719.254 431.787C730.235 431.123 746.468 431.579 757.842 431.546C766.728 444.946 777.128 461.279 786.756 473.859C794.85 465.276 809.188 442.444 817.003 431.64L856.212 431.639C840.206 452.975 823.76 477.83 808.615 499.999C824.516 522.448 840.271 545.001 855.88 567.656C850.544 568.56 822.398 567.979 815.832 567.909C808.412 556.475 795.554 536.919 787.238 526.513C777.268 540.233 767.568 554.148 758.143 568.249C745.702 567.812 731.945 567.999 719.403 567.923C732.246 547.219 751.648 520.742 765.876 499.999C759.483 491.806 751.971 480.064 745.973 471.256C737.399 458.668 727.23 444.692 719.254 431.787Z" fill="#0A0016"/>
<path d="M843.989 435.635L844.725 436.456C844.742 439.996 831.405 457.392 828.418 461.535L810.559 461.621C795.206 483.789 776.799 510.143 760.151 531.253L759.162 529.996C759.215 528.533 804.597 465.432 809.127 458.839L826.618 458.876C832.85 451.421 837.681 442.876 843.989 435.635Z" fill="#02D6E9"/>
<path d="M736.67 442.098C741.81 442.015 749.081 442.629 755.167 442.573C763.575 453.892 770.779 466.948 779.36 478.148C780.459 479.583 779.292 477.303 782.632 477.501C781.624 480.84 781.619 479.5 782.383 482.676C780.359 483.597 780.144 483.427 777.85 482.977L777.111 481.859L778.204 480.033C776.652 477.3 772.586 472.488 770.547 469.499C764.959 461.305 759.422 453.111 753.894 444.877C749.487 445.011 743.881 445.491 739.571 444.967C737.849 444.758 737.901 443.984 736.67 442.098Z" fill="#E79011"/>
<path d="M788.754 506.381C789.943 507.188 790.46 507.923 791.376 509.003C785.191 516.933 758.198 552.016 755.044 558.819C752.856 557.74 753.507 558.556 752.762 556.527C762.735 540.536 779.116 523.121 788.754 506.381Z" fill="#FBA01A"/>
<path d="M744.712 450.619C747.285 452.961 766.489 481.265 769.537 485.86C771.079 488.183 770.696 488.457 770.062 490.429C767.894 487.373 742.917 453.147 742.983 453.395L744.712 450.619Z" fill="#02D6E9"/>
<path d="M820.652 439.768C823.355 438.739 826.384 440.064 827.464 442.749C828.544 445.433 827.276 448.488 824.613 449.619C822.845 450.368 820.811 450.105 819.291 448.929C817.772 447.755 817.007 445.851 817.288 443.951C817.571 442.051 818.857 440.451 820.652 439.768Z" fill="#FBA01A"/>
<path d="M818.685 530.031L820.634 530.907C823.916 535.263 834.844 549.153 834.93 553.736C834.057 553.259 832.837 552.58 832.314 551.735C829.168 546.649 818.206 535.437 818.685 530.031Z" fill="#E79011"/>
<path d="M475.253 322.077C483.029 326.911 520.3 351.563 525.716 350.415C529.008 348.555 532.956 347.251 536.538 345.941C543.493 350.597 564.541 365.141 571.317 368.363C572.942 373.338 572.96 376.161 573.3 381.301C589.679 391.454 606.149 401.459 622.709 411.315C622.742 419.488 623.233 434.643 622.762 442.33L623.059 476.751C625.565 473.987 628.878 470.538 631.098 467.648C631.063 460.423 630.847 454.567 632.057 447.431C634.677 449.167 633.915 466.218 633.829 469.551L623.049 481.084C622.938 493.731 621.966 526.592 623.279 537.557L623.193 540.663C622.369 555.384 622.89 573.765 622.939 588.816C614.509 594.084 540.05 638.235 538.816 640.221C537.564 644.229 535.876 649.155 534.958 653.168L516.59 664.505C513.91 663.269 507.877 660.676 505.616 659.244C496.161 665.35 483.797 672.046 475.092 678.2C469.161 674.406 463.333 670.633 457.248 667.089C453.962 668.132 448.601 670.57 445.265 671.968C438.147 666.121 432.232 665.806 430.165 658.075L429.689 655.953C428.531 650.907 428.873 649.965 422.276 646.249C412.096 640.515 398.661 631.024 387.617 626.955C385.795 627.377 384.339 627.715 383.249 627.968L374.269 630.796C365.939 625.819 356.099 620.767 348.539 614.805C345.897 612.723 346.408 610.532 346.172 607.187C346.093 606.415 345.747 603.553 345.548 602.985C343.811 598.023 329.589 591.195 324.703 588.365L324.704 540.511C320.261 540.276 319.44 540.147 315.287 541.6L314.459 538.141L312.076 537.109C315.604 532.632 320.029 528.559 324.124 524.561C325.421 521.673 324.753 421.826 324.752 411.111L418.499 355.911C436.953 345.121 457.521 333.667 475.253 322.077Z" fill="#FBA01A"/>
<path d="M536.537 345.94C543.492 350.596 564.54 365.14 571.316 368.363L569.577 371.291L570.275 379.643C556.093 371.259 540.196 361.778 526.556 352.647L525.715 350.415C529.007 348.555 532.955 347.251 536.537 345.94Z" fill="#020004"/>
<path d="M536.537 345.94C543.492 350.596 564.54 365.14 571.316 368.363L569.577 371.291C563.431 366.295 543.588 354.119 536.007 349.24L526.556 352.647L525.715 350.415C529.007 348.555 532.955 347.251 536.537 345.94Z" fill="#E79011"/>
<path d="M349.169 612.512C349.195 610.182 348.853 605.376 349.891 603.778C354.643 606.041 381.654 621.161 382.997 624.201L383.249 627.968L374.269 630.796C365.938 625.818 356.099 620.766 348.539 614.805C345.897 612.722 346.408 610.532 346.172 607.186L349.169 612.512Z" fill="#020004"/>
<path d="M346.172 607.187L349.169 612.512C357.672 617.411 366.145 622.359 374.589 627.357C377.069 626.515 380.789 625.407 382.997 624.201L383.249 627.968L374.269 630.796C365.938 625.818 356.099 620.767 348.539 614.805C345.897 612.723 346.408 610.532 346.172 607.187Z" fill="#E79011"/>
<path d="M538.815 640.221C537.563 644.229 535.875 649.155 534.958 653.168L516.59 664.505C513.91 663.269 507.877 660.676 505.615 659.244C507.086 659.101 507.575 658.549 508.938 657.724C517.538 652.445 526.19 647.251 534.891 642.143L538.815 640.221Z" fill="#0A0016"/>
<path d="M538.815 640.221C537.563 644.229 535.875 649.155 534.958 653.168L516.59 664.505C513.91 663.269 507.877 660.676 505.615 659.244C507.086 659.101 507.575 658.549 508.938 657.724L516.131 661.184C526.447 655.392 532.713 654.332 534.891 642.143L538.815 640.221Z" fill="#E79011"/>
<path d="M431.948 656.14L432.259 653.288C435.807 652.965 449.511 662.066 453.499 664.525C454.864 665.976 455.299 666.765 457.247 667.089C453.961 668.132 448.6 670.57 445.264 671.968C438.145 666.121 432.231 665.806 430.164 658.074L431.948 656.14Z" fill="#020004"/>
<path d="M431.948 656.14C433.796 661.318 442.956 668.774 449.205 666.776C450.455 666.376 452.328 665.217 453.499 664.525C454.864 665.976 455.299 666.765 457.247 667.089C453.961 668.132 448.6 670.57 445.264 671.968C438.145 666.121 432.231 665.806 430.164 658.074L431.948 656.14Z" fill="#E79011"/>
<path d="M324.124 524.562L324.591 528.272L324.704 540.511C320.261 540.276 319.44 540.147 315.287 541.6L314.459 538.141L312.076 537.11C315.604 532.632 320.029 528.559 324.124 524.562Z" fill="#020004"/>
<path d="M324.124 524.562L324.591 528.272C321.695 531.103 317.385 535.608 314.459 538.141L312.076 537.11C315.604 532.632 320.029 528.559 324.124 524.562Z" fill="#E79011"/>
<path d="M474.94 339.38L566.413 394.1C577.677 400.858 595.191 410.847 605.502 418.49C610.034 421.848 608.466 468.432 608.462 475.739L608.694 563.569L608.753 580.836L475.225 661.09L412.906 624.286C389.136 609.35 363.3 594.846 339.029 580.285L339.351 419.307C382.379 392.207 430.852 366.094 474.94 339.38Z" fill="#0A0016"/>
<path d="M599.869 565.211C602.673 565.095 605.91 564.204 608.694 563.569L608.753 580.836L475.225 661.09L412.906 624.287C415.34 623.896 415.441 623.808 417.605 622.559C418.658 620.559 419.173 619.611 420.856 618.103L402.873 606.887L402.84 568.727C410.134 572.221 422.988 580.38 430.124 584.741C445.314 594.108 460.557 603.388 475.852 612.583C496.989 599.715 519.337 586.791 540.769 574.327L540.784 611.408C559.011 599.54 581.186 586.853 600.035 575.507L599.869 565.211Z" fill="#0AFAFB"/>
<path d="M599.868 565.211C602.672 565.095 605.91 564.204 608.694 563.569L608.752 580.836L475.225 661.09L412.906 624.287C415.34 623.896 415.441 623.808 417.605 622.559C418.658 620.559 419.173 619.611 420.856 618.103C437.338 627.013 458.626 640.781 475.05 650.77C496.454 637.504 519.122 624.365 540.783 611.408C559.011 599.54 581.186 586.853 600.035 575.507L599.868 565.211Z" fill="#0A0016"/>
<path d="M569.482 530.728L600.222 516.531C599.714 532.337 599.937 549.315 599.867 565.211L600.034 575.507C581.185 586.853 559.01 599.54 540.782 611.408L540.768 574.327C546.842 570.035 562.321 561.815 569.59 557.649L569.482 530.728Z" fill="#FBA01A"/>
<path d="M533.739 384.967L600.006 424.492C598.887 446.652 599.978 478.036 600.106 500.864L522.489 541.226L522.574 555.926L522.631 566.445L484.604 587.881L484.732 410.919C499.318 402.488 518.566 393.087 533.739 384.967Z" fill="#0AFAFB"/>
<path d="M522.596 420.335C527.602 422.143 559.556 443.218 565.3 447.123L565.282 481.813L552.194 489.155C542.47 494.395 532.64 499.433 522.708 504.269L522.596 420.335Z" fill="#0A0016"/>
<path d="M539.273 446.036L551.393 452.42C551.445 459.035 551.613 466.308 551.279 472.939C551.135 475.801 550.307 475.861 548.345 477.281L539.389 481.833L539.273 446.036Z" fill="#8223F7"/>
<path d="M383.195 403.29L383.816 403.502C385.529 405.942 384.475 455.713 384.423 462.812C389.509 467.559 394.52 472.832 399.399 477.827C408.404 470.816 419.865 460.309 428.727 452.659L428.66 430.568C440.916 423.523 454.04 416.55 466.468 409.688C466.923 427.854 466.528 447.585 466.52 465.872L436.663 495.832C444.633 505.348 457.448 517.473 466.401 526.328L466.517 588.473L441.761 574.041L428.731 566.511L428.773 540.759C419.652 534.409 410.568 528.007 401.524 521.549C396.425 527.411 389.981 533.175 384.256 538.531C384.559 558.067 384.727 577.604 384.76 597.142C372.435 590.236 359.532 582.3 347.556 574.806L347.533 525.321C354.484 517.501 363.912 508.248 371.34 500.601C363.316 491.121 355.376 481.571 347.521 471.949C347.683 456.061 347.743 440.173 347.703 424.284C359.357 417.206 371.435 410.243 383.195 403.29Z" fill="#0AFAFB"/>
<path d="M475.237 349.988C489.468 357.992 504.086 366.906 518.202 375.224C508.277 380.527 497.301 385.807 487.186 390.891L475.644 383.363C462.314 391.667 447.44 399.965 433.789 407.916L402.831 426.031L402.668 393.228C423.475 379.382 453.138 363.496 475.237 349.988Z" fill="#FBA01A"/>
<path d="M404.682 536.86C408.334 538.276 414.052 542.999 417.392 545.528C417.409 548.896 417.872 558.308 416.424 560.75C411.797 558.065 407.184 555.358 402.585 552.628C402.37 547.286 401.309 540.748 404.682 536.86Z" fill="#8223F7"/>
<path d="M416.941 436.663C418.892 438.335 418.152 446.444 418.121 449.214C413.613 453.02 408.592 456.906 403.962 460.624L402.726 459.596C401.914 456.03 402.272 449.046 402.326 445.14L416.941 436.663Z" fill="#8223F7"/>
<path d="M466.212 485.604C468.194 488.125 467.36 506.019 467.316 510.496L459.874 504.273L453.814 498.967C457.893 494.463 462.026 490.009 466.212 485.604Z" fill="#8223F7"/>
<path d="M551.007 540.713C551.699 543.427 551.813 552.235 551.933 555.48C548.657 557.057 545.209 558.901 541.947 560.567C540.097 558.325 540.962 550.149 541.063 546.784L551.007 540.713Z" fill="#8223F7"/>
<path d="M347.383 491.332C350.968 493.512 354.399 496.197 354.979 500.444L352.963 502.736C350.741 504.8 350.964 505.251 348.261 505.765C346.488 503.161 347.308 495.181 347.383 491.332Z" fill="#8223F7"/>
<path d="M501.363 678.636C508.122 678.586 533.922 677.345 537.201 680.109L536.941 682.286C530.329 682.128 506.274 683.342 502.055 681.34L501.363 678.636Z" fill="#02D6E9"/>
<path d="M385.836 314.542C390.911 313.509 417.209 313.235 421.406 314.553L422.583 316.878C412.128 317.317 400.464 318.005 390.003 317.327C387.123 317.142 387.467 316.747 385.836 314.542Z" fill="#02D6E9"/>
<path d="M623.775 421.339C630.086 421.135 651.511 419.931 656.126 421.93L657.113 424.518C650.831 424.65 628.839 425.687 624.414 423.526L623.775 421.339Z" fill="#02D6E9"/>
<path d="M623.278 537.557L638.218 537.745C638.249 541.813 638.594 558.612 636.379 561.737L636.351 561.736L636.699 560.358C635.091 558.388 635.541 543.805 635.605 540.597L623.191 540.662L623.278 537.557Z" fill="#E79011"/>
<path d="M292.727 589.247C297.812 588.751 310.591 587.777 314.933 589.688L315.771 592.236C309.807 592.412 300.051 593.123 294.371 591.805C293.657 591.64 293.185 590.161 292.727 589.247Z" fill="#02D6E9"/>
<path d="M312.076 537.109L314.459 538.141L315.287 541.6C315.269 545.613 315.475 555.447 313.881 558.485L313.617 558.309C311.929 551.036 312.152 544.56 312.076 537.109Z" fill="#E79011"/>
<path d="M297.582 495.435C299.259 495.788 299.139 495.799 300.463 496.915C301.601 501.769 301.007 508.511 300.81 513.64L299.018 513.151C296.238 510.112 297.417 500 297.582 495.435Z" fill="#0AFAFB"/>
<path d="M634.944 565.145C636.86 564.113 639.248 564.784 640.348 566.661C641.45 568.538 640.867 570.95 639.031 572.118C637.783 572.913 636.2 572.962 634.904 572.246C633.61 571.53 632.808 570.164 632.816 568.684C632.826 567.204 633.642 565.846 634.944 565.145Z" fill="#FBA01A"/>
<path d="M629.728 438.355C631.232 436.902 633.61 436.88 635.141 438.307C636.671 439.732 636.818 442.107 635.477 443.711C634.542 444.827 633.069 445.336 631.645 445.035C630.221 444.734 629.08 443.671 628.678 442.272C628.277 440.872 628.68 439.366 629.728 438.355Z" fill="#FBA01A"/>
<path d="M347.436 383.858C349.438 384.115 350.76 384.469 352.721 384.966C355.193 386.627 355.548 388.75 356.482 391.558C353.626 391.757 352.366 392.083 349.702 391.011C347.804 388.995 347.853 386.719 347.436 383.858Z" fill="#8223F7"/>
<path d="M295.923 440.988C296.915 439.963 298.391 439.57 299.762 439.966C301.133 440.363 302.171 441.484 302.462 442.88C302.753 444.278 302.249 445.72 301.151 446.631C299.577 447.938 297.257 447.786 295.866 446.286C294.477 444.784 294.501 442.459 295.923 440.988Z" fill="#8223F7"/>
<path d="M312.475 563.075C313.779 562.665 315.201 562.993 316.197 563.929C317.192 564.867 317.604 566.268 317.276 567.595C316.946 568.921 315.926 569.968 314.609 570.331C312.62 570.879 310.56 569.732 309.977 567.752C309.395 565.772 310.505 563.692 312.475 563.075Z" fill="#E79011"/>
<defs>
<linearGradient id="paint0_linear_317_252" x1="1363.26" y1="443.012" x2="1211.16" y2="525.038" gradientUnits="userSpaceOnUse">
<stop stop-color="#000200"/>
<stop offset="1" stop-color="#0A001B"/>
</linearGradient>
<linearGradient id="paint1_linear_317_252" x1="1152.72" y1="505.383" x2="1226.7" y2="488.114" gradientUnits="userSpaceOnUse">
<stop stop-color="#020106"/>
<stop offset="1" stop-color="#0B011B"/>
</linearGradient>
</defs>
</svg>
