<svg width="1204" height="369" viewBox="0 0 1204 369" fill="none" xmlns="http://www.w3.org/2000/svg">
<path d="M1078.39 110.864L1203.15 110.834L1202.99 155.408L1128.66 155.574L1128.72 165.128C1150.28 165.014 1171.83 165.028 1193.38 165.17C1193.52 179.222 1193.79 193.253 1193.34 207.3L1136.36 207.246C1134.71 207.254 1132.9 207.381 1131.23 207.458C1127.8 210.266 1127.62 213.685 1130.31 216.989C1138.66 218.118 1150.2 217.65 1158.88 217.63L1202.99 217.6L1203.08 261.845L1078.4 261.891L1078.39 110.864Z" fill="#0AFAFB"/>
<path d="M1085.47 117.861L1196.04 117.9C1196.14 127.914 1195.96 138.329 1195.92 148.374L1121.26 148.348L1121.27 172.132L1186.68 172.174L1186.26 200.214C1168.4 200.154 1150.54 200.276 1132.7 200.577L1121.67 200.682L1121.38 224.465L1195.88 224.424C1195.82 234.4 1195.98 244.634 1196.03 254.629C1159.78 254.007 1122.08 254.571 1085.72 254.495C1084.95 209.724 1085.71 162.905 1085.47 117.861Z" fill="#0A0016"/>
<path d="M1156.3 178.806C1157 179.169 1156.79 179.118 1157.3 179.898C1154.07 184.545 1149.46 188.617 1145.35 192.565L1104.35 192.514C1104.36 201.988 1104.79 227.081 1103.43 235.281C1103.18 235.174 1102.9 235.118 1102.68 234.962C1100.18 233.19 1101.22 195.425 1101.22 189.741L1144.16 189.856C1148.11 186.448 1152.39 182.361 1156.3 178.806Z" fill="#02D6E9"/>
<path d="M1113.43 232.865C1132.34 230.802 1156.66 233.565 1175.99 232.833C1178.23 232.749 1178.26 233.425 1179.46 234.996C1172.68 235.833 1119.6 235.875 1114.5 234.626L1113.43 232.865Z" fill="#FBA01A"/>
<path d="M1091.7 127.873C1092.12 127.792 1093.67 127.496 1094.06 127.529C1101.03 128.141 1128.47 125.272 1133.02 129.274C1128.2 130.642 1095.16 131.274 1091.7 127.873Z" fill="#02D6E9"/>
<path d="M1184.5 127.08C1185.83 126.797 1185.12 126.804 1186.6 127.568L1186.54 129.468C1184.15 130.726 1160.75 130.045 1156.06 130.045C1153.5 129.834 1154.52 130.356 1152.83 128.445C1156.1 126.23 1179.46 127.097 1184.5 127.08Z" fill="#E79011"/>
<path d="M1170.02 183.91C1171.74 182.86 1173.91 182.849 1175.64 183.884C1177.38 184.918 1178.39 186.828 1178.28 188.844C1178.18 190.86 1176.96 192.652 1175.12 193.497C1172.51 194.704 1169.4 193.658 1168.04 191.116C1166.7 188.572 1167.56 185.41 1170.02 183.91Z" fill="#FBA01A"/>
<path d="M1100.82 243.683C1102.15 242.378 1104.28 242.354 1105.64 243.629C1107.02 244.904 1107.14 247.027 1105.94 248.455C1105.1 249.442 1103.79 249.889 1102.52 249.62C1101.27 249.35 1100.26 248.406 1099.9 247.165C1099.54 245.924 1099.88 244.585 1100.82 243.683Z" fill="#E79011"/>
<path d="M941.615 110.924L1064.67 110.892L1064.9 155.384L991.658 155.478L991.6 168.282L1062.39 168.046L1062.52 187.547L1062.47 211.553L990.919 211.718L990.799 261.687L941.681 261.83L941.615 110.924Z" fill="#0AFAFB"/>
<path d="M948.934 117.944L1057.58 117.881C1057.64 127.608 1057.48 138.736 1058.12 148.337L984.175 148.476L984.033 175.375C1007.78 175.066 1031.53 175.035 1055.28 175.283C1055.2 184.689 1054.88 195.117 1055.16 204.441L983.787 204.438L983.843 254.441L948.897 254.357L948.986 141.498L948.513 140.093C949.274 133.321 948.989 124.897 948.934 117.944Z" fill="url(#paint0_linear_320_1173)"/>
<path d="M948.513 140.093C952.793 138.397 1031.92 138.573 1033.75 139.66L1033.41 141.057C1021.06 142.073 1001.58 141.626 988.698 141.633C977.625 141.638 959.597 142.2 948.986 141.498L948.513 140.093Z" fill="#02D6E9"/>
<path d="M1040.9 194.793L1042.03 194.814C1042.66 197.094 1042.79 196.062 1041.79 198.03C1019.25 197.325 995.398 197.649 972.766 197.599L973.199 237.61L971.405 237.038C969.407 233.771 970.109 201.887 970.061 195.318L1016.45 195.309C1022.74 195.306 1035.04 195.615 1040.9 194.793Z" fill="#FBA01A"/>
<path d="M949.789 184.718C966.909 183.587 987.374 184.651 1004.8 184.217C1010.45 184.077 1033.27 183.938 1037.59 184.713L1038.71 186.617C1018.59 186.894 998.468 187.013 978.346 186.97C972.879 186.975 955.481 187.357 950.738 186.674L949.789 184.718Z" fill="#02D6E9"/>
<path d="M953.711 125.394L954.425 125.654C954.789 125.784 955.158 125.894 955.517 126.038C966.123 130.296 1019.78 125.502 1036.47 127.096C1038.86 127.324 1038.96 127.498 1040.51 129.344C1021.97 130.098 1001.12 128.881 982.369 129.521C973.878 129.81 964.873 129.282 956.386 130.278C954.958 130.446 955.753 130.552 954.306 129.604L953.711 125.394Z" fill="#FBA01A"/>
<path d="M968.989 241.737C970.221 240.633 971.974 240.327 973.507 240.95C975.039 241.571 976.085 243.013 976.199 244.663C976.314 246.314 975.479 247.886 974.047 248.715C972.125 249.827 969.674 249.306 968.37 247.507C967.067 245.71 967.334 243.218 968.989 241.737Z" fill="#02D6E9"/>
<path d="M873.664 110.896L923.506 110.849L923.547 261.87L873.691 261.721C873.123 211.846 873.578 160.852 873.664 110.896Z" fill="#0AFAFB"/>
<path d="M880.828 117.918L916.267 117.856C916.864 163.105 916.359 209.178 916.518 254.517L881.206 254.638C881.844 210.028 880.931 162.817 880.828 117.918Z" fill="url(#paint1_linear_320_1173)"/>
<path d="M886.607 128.578C887.762 129.249 888.907 129.533 888.919 131.093C889.206 165.885 889.843 200.886 888.716 235.669C888.716 235.669 887.324 237.767 887.192 237.965C885.708 232.042 885.691 135.897 886.607 128.578Z" fill="#FBA01A"/>
<path d="M902.868 153.332L906.895 154.088C908.335 155.936 908.007 154.902 907.807 157.32L905.52 159.186C904.592 163.561 905.067 180.741 905.108 185.732L900.264 190.85C900.638 209.989 900.606 229.133 900.17 248.27L899.223 249.433L897.939 249.123C896.355 244.375 897.13 196.777 897.119 189.57L902.596 184.738C902.524 174.269 902.615 163.798 902.868 153.332Z" fill="#02D6E9"/>
<path d="M885.551 242.811C886.494 241.903 887.854 241.574 889.107 241.95C890.362 242.326 891.315 243.349 891.604 244.626C891.892 245.903 891.47 247.237 890.499 248.115C889.03 249.446 886.766 249.35 885.414 247.901C884.062 246.451 884.122 244.185 885.551 242.811Z" fill="#02D6E9"/>
<path d="M738.498 110.875L787.913 110.841L787.787 217.538L859.582 217.512L859.603 261.89C829.826 261.288 798.025 261.881 768.074 261.902C758.415 251.7 748.623 241.625 738.702 231.68L738.498 110.875Z" fill="#0AFAFB"/>
<path d="M745.622 117.86C757.326 117.985 769.225 117.872 780.945 117.86L780.822 224.605C804.167 224.621 829.112 225.928 852.243 224.689C852.368 234.41 852.162 244.556 852.107 254.313C846.943 254.832 831.85 254.513 825.734 254.546L771.205 254.884L745.898 228.65L745.622 117.86Z" fill="#0A0016"/>
<path d="M752.159 206.405C753.29 206.838 753.395 207.028 754.409 207.72C755.391 212.256 754.845 219.202 754.679 224.022C760.063 230.108 769.333 239.88 775.315 245.029C782.414 244.838 806.409 243.838 811.954 245.345L813.15 247.826C801.051 248.344 787.078 248.008 774.811 247.949C770.501 244.525 756.653 229.757 752.047 225.153C751.999 218.904 752.037 212.653 752.159 206.405Z" fill="#02D6E9"/>
<path d="M753.051 125.96L755.143 126.72C757.427 130.277 756.279 164.363 756.093 170.877C752.701 169.537 753.558 163.899 753.558 160.552C753.559 148.989 753.445 137.516 753.051 125.96Z" fill="#02D6E9"/>
<path d="M837.904 240.88C840.074 239.102 843.272 239.413 845.056 241.577C846.842 243.741 846.542 246.941 844.384 248.734C842.218 250.536 838.999 250.233 837.206 248.058C835.411 245.885 835.724 242.668 837.904 240.88Z" fill="#E79011"/>
<path d="M818.523 244.116C822.275 243.857 826.417 242.753 829.037 245.538L828.802 248.625C824.727 248.77 822.302 249.445 819.208 247.486L818.523 244.116Z" fill="#FBA01A"/>
<path d="M585.181 110.804L641.424 110.722C654.58 110.71 675.315 109.836 687.319 112.865C696.304 115.13 704.509 119.788 711.062 126.341C721.368 136.608 727.094 150.598 726.946 165.145C726.925 182.359 719.904 197.986 705.88 208.318C689.044 220.721 666.109 218.046 646.111 217.91L646.04 175.973C653.288 176.132 684.173 179.133 677.759 163.168C676.38 159.737 674.364 156.75 670.295 156.337C660.34 155.329 650.076 155.773 640.024 155.833C624.119 155.994 608.212 155.934 592.308 155.653C593.148 187.236 592.501 222.541 592.291 254.358L628.412 254.379C628.337 243.861 626.209 180.411 630.063 175.591C632.805 175.268 631.679 175.129 634.469 176.57C636.279 179.304 635.463 191.881 635.449 196.066L635.561 261.682L585.075 261.527C584.435 224.603 585.028 185.373 585.162 148.394L640.08 148.352C650.272 148.316 661.44 147.825 671.405 149.009C684.36 150.841 689.439 168.421 680.393 177.472C673.421 184.447 661.985 183.117 652.936 183.029L653.008 210.985C661.383 211.067 670.272 211.463 678.587 210.899C718.109 208.218 733.453 158.958 706.628 131.7C700.799 125.762 693.441 121.554 685.368 119.542C675.412 117.104 655.001 117.825 644.067 117.864L592.185 117.876C592.245 122.385 592.897 131.577 590.925 135.076C588.228 135.505 587.872 135.748 585.555 134.606C584.445 130.497 585.092 115.736 585.181 110.804Z" fill="#0AFAFB"/>
<path d="M625.124 138.376C630.084 137.732 641.988 137.986 647.441 138.004L687.977 138.178C695.559 145.634 703.048 153.184 710.444 160.824C710.728 167.36 710.703 174.28 710.773 180.854C703.589 188.262 692.171 202.425 683.272 204.361L681.911 202.251C683.095 198.853 685.792 202.065 688.737 199.426C695.321 193.529 701.816 186.421 707.917 180.023L708.042 161.504C701.035 154.322 694.453 147.638 687.104 140.769C671.296 140.961 643.567 141.014 627.028 140.213C626.288 139.498 625.653 138.886 625.124 138.376Z" fill="#FBA01A"/>
<path d="M606.077 201.239L607.325 201.749C609.687 205.021 608.267 244.587 607.933 251.357L606.652 251.291C604.697 247.671 605.769 207.786 606.077 201.239Z" fill="#02D6E9"/>
<path d="M618.84 201.042L620.304 201.657C622.355 204.951 621.523 232.869 620.719 238.151L619.392 237.246C617.509 234.102 618.711 206.449 618.84 201.042Z" fill="#FBA01A"/>
<path d="M617.084 241.75C618.26 240.75 619.891 240.483 621.323 241.055C622.756 241.627 623.755 242.945 623.919 244.478C624.083 246.013 623.385 247.511 622.105 248.373C620.275 249.607 617.799 249.195 616.464 247.437C615.131 245.677 615.403 243.181 617.084 241.75Z" fill="#FBA01A"/>
<path d="M412.649 110.863L469.109 110.771C477.357 123.409 485.785 135.93 494.39 148.328L520.177 110.889L577.112 110.839C559.362 135.765 541.968 160.944 524.938 186.366L576.294 259.906L576.446 260.367L575.788 261.433C557.61 261.907 538.227 261.599 519.959 261.619L494.809 225.153C486.318 237.32 477.894 249.533 469.537 261.791C450.541 261.601 431.543 261.599 412.549 261.787L464.082 186.376C447.301 163.222 428.999 134.81 412.649 110.863Z" fill="#0AFAFB"/>
<path d="M426.527 118.124C437.509 117.46 453.742 117.916 465.115 117.883C474.002 131.283 484.402 147.616 494.03 160.196C502.123 151.613 516.462 128.781 524.276 117.977L563.486 117.976C547.479 139.312 531.034 164.167 515.888 186.336C531.79 208.785 547.544 231.338 563.154 253.993C557.818 254.897 529.671 254.316 523.106 254.246C515.686 242.812 502.827 223.256 494.511 212.85C484.542 226.57 474.842 240.485 465.417 254.586C452.975 254.149 439.218 254.336 426.677 254.26C439.519 233.556 458.922 207.078 473.15 186.336C466.757 178.143 459.245 166.401 453.246 157.593C444.673 145.005 434.503 131.029 426.527 118.124Z" fill="#0A0016"/>
<path d="M551.262 121.972L551.998 122.793C552.015 126.333 538.678 143.729 535.691 147.872L517.833 147.958C502.479 170.126 484.073 196.48 467.425 217.59L466.436 216.333C466.489 214.87 511.87 151.769 516.401 145.176L533.891 145.213C540.123 137.758 544.954 129.213 551.262 121.972Z" fill="#02D6E9"/>
<path d="M443.943 128.434C449.083 128.352 456.354 128.966 462.441 128.91C470.849 140.229 478.053 153.285 486.634 164.485C487.733 165.92 486.566 163.64 489.906 163.838C488.898 167.177 488.893 165.837 489.657 169.013C487.633 169.934 487.418 169.764 485.123 169.314L484.385 168.196L485.478 166.37C483.926 163.637 479.859 158.825 477.821 155.836C472.233 147.642 466.695 139.448 461.167 131.214C456.761 131.348 451.154 131.828 446.845 131.304C445.122 131.094 445.174 130.321 443.943 128.434Z" fill="#E79011"/>
<path d="M496.027 192.718C497.216 193.525 497.734 194.26 498.65 195.34C492.464 203.27 465.471 238.353 462.318 245.155C460.13 244.077 460.78 244.893 460.035 242.863C470.008 226.873 486.39 209.458 496.027 192.718Z" fill="#FBA01A"/>
<path d="M451.985 136.956C454.559 139.298 473.763 167.602 476.811 172.197C478.352 174.519 477.969 174.794 477.336 176.766C475.168 173.71 450.191 139.484 450.256 139.732L451.985 136.956Z" fill="#02D6E9"/>
<path d="M527.925 126.105C530.628 125.076 533.657 126.401 534.737 129.086C535.817 131.77 534.549 134.825 531.887 135.956C530.119 136.705 528.084 136.442 526.564 135.266C525.045 134.092 524.28 132.188 524.561 130.288C524.844 128.388 526.131 126.788 527.925 126.105Z" fill="#FBA01A"/>
<path d="M525.959 216.368L527.908 217.244C531.189 221.6 542.117 235.49 542.204 240.073C541.33 239.596 540.111 238.917 539.588 238.072C536.441 232.986 525.48 221.774 525.959 216.368Z" fill="#E79011"/>
<path d="M182.527 8.41357C190.303 13.2482 227.573 37.9002 232.989 36.7522C236.281 34.8922 240.229 33.5882 243.812 32.2775C250.766 36.9335 271.814 51.4775 278.59 54.7001C280.216 59.6748 280.233 62.4975 280.573 67.6374C296.953 77.7908 313.422 87.796 329.982 97.652C330.016 105.825 330.506 120.98 330.035 128.667L330.333 163.088C332.838 160.324 336.151 156.875 338.371 153.985C338.337 146.76 338.121 140.904 339.33 133.768C341.95 135.504 341.189 152.555 341.102 155.888L330.322 167.421C330.211 180.068 329.239 212.929 330.553 223.894L330.466 227C329.642 241.721 330.163 260.102 330.213 275.153C321.782 280.421 247.324 324.571 246.089 326.558C244.837 330.566 243.149 335.491 242.232 339.505L223.864 350.842C221.184 349.606 215.15 347.013 212.889 345.581C203.434 351.687 191.071 358.383 182.365 364.537C176.435 360.743 170.607 356.97 164.521 353.426C161.236 354.469 155.875 356.907 152.539 358.305C145.42 352.458 139.505 352.143 137.439 344.411L136.963 342.29C135.804 337.243 136.147 336.302 129.549 332.586C119.369 326.851 105.935 317.361 94.8908 313.292C93.0681 313.714 91.6121 314.051 90.5228 314.305L81.5428 317.133C73.2121 312.155 63.3721 307.104 55.8122 301.142C53.1708 299.06 53.6815 296.869 53.4455 293.524C53.3668 292.752 53.0202 289.89 52.8215 289.322C51.0842 284.36 36.8629 277.532 31.9762 274.702L31.9776 226.848C27.5349 226.613 26.7136 226.484 22.5603 227.937L21.7323 224.478L19.3496 223.446C22.8776 218.969 27.3029 214.896 31.3976 210.898C32.6949 208.01 32.0269 108.163 32.0256 97.448L125.772 42.2481C144.227 31.4575 164.795 20.0042 182.527 8.41357Z" fill="#FBA01A"/>
<path d="M243.811 32.2773C250.766 36.9333 271.814 51.4773 278.59 54.7L276.851 57.6279L277.548 65.9799C263.367 57.596 247.47 48.1146 233.83 38.984L232.988 36.752C236.28 34.892 240.228 33.588 243.811 32.2773Z" fill="#020004"/>
<path d="M243.811 32.2773C250.766 36.9333 271.814 51.4773 278.59 54.7L276.851 57.6279C270.704 52.632 250.862 40.456 243.28 35.5773L233.83 38.984L232.988 36.752C236.28 34.892 240.228 33.588 243.811 32.2773Z" fill="#E79011"/>
<path d="M56.4427 298.849C56.468 296.519 56.1266 291.713 57.164 290.115C61.916 292.378 88.9279 307.498 90.2705 310.538L90.5226 314.305L81.5426 317.133C73.2119 312.155 63.3719 307.103 55.812 301.142C53.1706 299.059 53.6813 296.869 53.4453 293.523L56.4427 298.849Z" fill="#020004"/>
<path d="M53.4453 293.523L56.4427 298.849C64.9453 303.747 73.4186 308.695 81.8626 313.694C84.3426 312.851 88.0625 311.743 90.2705 310.538L90.5226 314.305L81.5426 317.133C73.2119 312.155 63.3719 307.103 55.812 301.142C53.1706 299.059 53.6813 296.869 53.4453 293.523Z" fill="#E79011"/>
<path d="M246.089 326.558C244.837 330.566 243.149 335.491 242.231 339.505L223.863 350.842C221.183 349.606 215.15 347.013 212.889 345.581C214.359 345.438 214.849 344.886 216.211 344.061C224.811 338.782 233.463 333.587 242.165 328.479L246.089 326.558Z" fill="#0A0016"/>
<path d="M246.089 326.558C244.837 330.566 243.149 335.491 242.231 339.505L223.863 350.842C221.183 349.606 215.15 347.013 212.889 345.581C214.359 345.438 214.849 344.886 216.211 344.061L223.405 347.521C233.721 341.729 239.986 340.669 242.165 328.479L246.089 326.558Z" fill="#E79011"/>
<path d="M139.222 342.477L139.532 339.625C143.08 339.302 156.784 348.403 160.772 350.862C162.137 352.313 162.572 353.102 164.52 353.426C161.235 354.469 155.873 356.907 152.537 358.305C145.419 352.458 139.504 352.143 137.438 344.411L139.222 342.477Z" fill="#020004"/>
<path d="M139.222 342.477C141.07 347.655 150.229 355.111 156.479 353.113C157.728 352.713 159.601 351.554 160.772 350.862C162.137 352.313 162.572 353.102 164.52 353.426C161.235 354.469 155.873 356.907 152.537 358.305C145.419 352.458 139.504 352.143 137.438 344.411L139.222 342.477Z" fill="#E79011"/>
<path d="M31.3976 210.898L31.8642 214.609L31.9776 226.848C27.5349 226.613 26.7136 226.484 22.5603 227.937L21.7323 224.478L19.3496 223.446C22.8776 218.969 27.3029 214.896 31.3976 210.898Z" fill="#020004"/>
<path d="M31.3976 210.898L31.8642 214.609C28.9682 217.44 24.6589 221.945 21.7323 224.478L19.3496 223.446C22.8776 218.969 27.3029 214.896 31.3976 210.898Z" fill="#E79011"/>
<path d="M182.213 25.7173L273.686 80.4371C284.95 87.1945 302.465 97.1838 312.775 104.826C317.307 108.185 315.739 154.769 315.735 162.076L315.967 249.906L316.026 267.173L182.498 347.427L120.18 310.623C96.4093 295.687 70.5733 281.183 46.3027 266.622L46.6241 105.644C89.652 78.5438 138.125 52.4306 182.213 25.7173Z" fill="#0A0016"/>
<path d="M307.142 251.548C309.946 251.432 313.183 250.541 315.967 249.906L316.026 267.173L182.498 347.427L120.18 310.623C122.613 310.233 122.715 310.145 124.879 308.895C125.932 306.895 126.447 305.947 128.129 304.439L110.147 293.223L110.113 255.064C117.408 258.558 130.261 266.717 137.397 271.078C152.588 280.445 167.83 289.725 183.125 298.919C204.262 286.051 226.61 273.128 248.042 260.664L248.057 297.745C266.285 285.877 288.459 273.19 307.309 261.844L307.142 251.548Z" fill="#0AFAFB"/>
<path d="M307.142 251.548C309.946 251.432 313.183 250.541 315.967 249.906L316.026 267.173L182.498 347.427L120.18 310.623C122.613 310.233 122.714 310.145 124.878 308.895C125.932 306.895 126.446 305.947 128.129 304.439C144.612 313.35 165.9 327.118 182.324 337.107C203.727 323.841 226.395 310.702 248.057 297.745C266.285 285.877 288.459 273.19 307.309 261.844L307.142 251.548Z" fill="#0A0016"/>
<path d="M276.756 217.065L307.496 202.868C306.988 218.674 307.21 235.652 307.141 251.548L307.308 261.844C288.458 273.19 266.284 285.877 248.056 297.745L248.041 260.664C254.116 256.372 269.594 248.152 276.864 243.986L276.756 217.065Z" fill="#FBA01A"/>
<path d="M241.013 71.3037L307.279 110.829C306.161 132.989 307.251 164.373 307.379 187.201L229.762 227.563L229.848 242.263L229.905 252.782L191.877 274.218L192.005 97.2556C206.592 88.825 225.84 79.4237 241.013 71.3037Z" fill="#0AFAFB"/>
<path d="M229.869 106.672C234.876 108.48 266.829 129.554 272.573 133.46L272.556 168.15L259.468 175.492C249.744 180.732 239.913 185.77 229.981 190.606L229.869 106.672Z" fill="#0A0016"/>
<path d="M246.547 132.373L258.667 138.757C258.719 145.372 258.887 152.645 258.552 159.276C258.408 162.138 257.58 162.198 255.619 163.618L246.663 168.17L246.547 132.373Z" fill="#8223F7"/>
<path d="M90.4682 89.6265L91.0895 89.8385C92.8028 92.2785 91.7482 142.05 91.6962 149.149C96.7828 153.896 101.793 159.169 106.672 164.164C115.677 157.153 127.139 146.646 136 138.996L135.933 116.905C148.189 109.86 161.313 102.886 173.741 96.0251C174.196 114.19 173.801 133.922 173.793 152.209L143.936 182.169C151.907 191.685 164.721 203.81 173.675 212.665L173.791 274.81L149.035 260.378L136.004 252.847L136.047 227.095C126.925 220.746 117.841 214.343 108.797 207.886C103.699 213.748 97.2548 219.511 91.5295 224.867C91.8322 244.403 92.0002 263.941 92.0335 283.479C79.7082 276.573 66.8056 268.637 54.8296 261.143L54.8069 211.658C61.7576 203.838 71.1856 194.585 78.6135 186.938C70.5896 177.458 62.6496 167.908 54.7949 158.286C54.9563 142.398 55.0163 126.51 54.9763 110.621C66.6309 103.542 78.7082 96.5798 90.4682 89.6265Z" fill="#0AFAFB"/>
<path d="M182.511 36.3252C196.741 44.3292 211.36 53.2425 225.476 61.5611C215.55 66.8638 204.574 72.1438 194.46 77.2278L182.917 69.6998C169.588 78.0038 154.713 86.3024 141.063 94.253L110.104 112.368L109.941 79.5651C130.748 65.7184 160.412 49.8332 182.511 36.3252Z" fill="#FBA01A"/>
<path d="M111.956 223.197C115.608 224.613 121.325 229.335 124.665 231.865C124.682 235.233 125.145 244.645 123.697 247.087C119.07 244.402 114.457 241.695 109.859 238.965C109.644 233.623 108.583 227.085 111.956 223.197Z" fill="#8223F7"/>
<path d="M124.214 123C126.165 124.672 125.425 132.781 125.394 135.551C120.886 139.357 115.865 143.243 111.236 146.961L110 145.933C109.188 142.367 109.545 135.383 109.6 131.477L124.214 123Z" fill="#8223F7"/>
<path d="M173.485 171.941C175.468 174.462 174.633 192.356 174.589 196.833L167.148 190.61L161.088 185.304C165.167 180.8 169.3 176.346 173.485 171.941Z" fill="#8223F7"/>
<path d="M258.281 227.05C258.973 229.764 259.086 238.572 259.206 241.817C255.93 243.394 252.482 245.238 249.221 246.904C247.37 244.662 248.236 236.486 248.337 233.121L258.281 227.05Z" fill="#8223F7"/>
<path d="M54.6562 177.669C58.2415 179.849 61.6722 182.534 62.2522 186.781L60.2362 189.073C58.0148 191.137 58.2375 191.588 55.5348 192.102C53.7615 189.498 54.5815 181.518 54.6562 177.669Z" fill="#8223F7"/>
<path d="M208.637 364.973C215.395 364.923 241.195 363.682 244.474 366.446L244.214 368.623C237.602 368.465 213.547 369.679 209.329 367.677L208.637 364.973Z" fill="#02D6E9"/>
<path d="M93.1094 0.878901C98.184 -0.154429 124.483 -0.427768 128.68 0.889562L129.856 3.21489C119.401 3.65356 107.737 4.34157 97.276 3.66423C94.396 3.4789 94.74 3.08423 93.1094 0.878901Z" fill="#02D6E9"/>
<path d="M331.049 107.676C337.359 107.472 358.785 106.268 363.399 108.267L364.386 110.855C358.105 110.987 336.113 112.024 331.687 109.862L331.049 107.676Z" fill="#02D6E9"/>
<path d="M330.552 223.894L345.491 224.082C345.522 228.15 345.868 244.949 343.653 248.074L343.625 248.073L343.973 246.695C342.365 244.725 342.814 230.142 342.878 226.934L330.465 226.999L330.552 223.894Z" fill="#E79011"/>
<path d="M0 275.583C5.08532 275.087 17.864 274.114 22.2066 276.025L23.0439 278.573C17.08 278.749 7.32398 279.459 1.644 278.142C0.930667 277.977 0.458666 276.498 0 275.583Z" fill="#02D6E9"/>
<path d="M19.3496 223.446L21.7323 224.478L22.5603 227.937C22.5429 231.95 22.7483 241.784 21.1549 244.822L20.8909 244.646C19.2029 237.373 19.4256 230.897 19.3496 223.446Z" fill="#E79011"/>
<path d="M4.85545 181.771C6.53278 182.125 6.4128 182.136 7.73679 183.252C8.87412 188.106 8.28078 194.847 8.08345 199.977L6.29146 199.487C3.51147 196.449 4.69012 186.337 4.85545 181.771Z" fill="#0AFAFB"/>
<path d="M342.218 251.482C344.134 250.45 346.522 251.121 347.622 252.998C348.723 254.875 348.141 257.287 346.305 258.455C345.057 259.25 343.474 259.299 342.178 258.583C340.883 257.867 340.082 256.501 340.09 255.021C340.099 253.541 340.915 252.183 342.218 251.482Z" fill="#FBA01A"/>
<path d="M337.001 124.692C338.505 123.239 340.884 123.217 342.414 124.644C343.945 126.069 344.092 128.444 342.75 130.048C341.816 131.164 340.342 131.673 338.918 131.372C337.494 131.071 336.353 130.008 335.952 128.609C335.55 127.209 335.953 125.703 337.001 124.692Z" fill="#FBA01A"/>
<path d="M54.709 70.1948C56.7116 70.4522 58.033 70.8055 59.9943 71.3028C62.4663 72.9641 62.821 75.0868 63.7556 77.8948C60.8996 78.0935 59.6397 78.4201 56.9757 77.3481C55.077 75.3321 55.1263 73.0562 54.709 70.1948Z" fill="#8223F7"/>
<path d="M3.19667 127.325C4.18866 126.3 5.66468 125.906 7.03534 126.302C8.406 126.7 9.44466 127.821 9.73533 129.217C10.026 130.614 9.52199 132.057 8.42466 132.968C6.85 134.274 4.53 134.122 3.13933 132.622C1.75 131.121 1.774 128.796 3.19667 127.325Z" fill="#8223F7"/>
<path d="M19.7479 249.412C21.0519 249.002 22.4746 249.33 23.4706 250.266C24.4653 251.204 24.8773 252.605 24.5493 253.932C24.2199 255.258 23.1999 256.305 21.8826 256.668C19.8933 257.216 17.8333 256.069 17.2506 254.089C16.668 252.109 17.7786 250.029 19.7479 249.412Z" fill="#E79011"/>
<defs>
<linearGradient id="paint0_linear_320_1173" x1="1070.53" y1="129.349" x2="918.436" y2="211.375" gradientUnits="userSpaceOnUse">
<stop stop-color="#000200"/>
<stop offset="1" stop-color="#0A001B"/>
</linearGradient>
<linearGradient id="paint1_linear_320_1173" x1="859.993" y1="191.72" x2="933.971" y2="174.451" gradientUnits="userSpaceOnUse">
<stop stop-color="#020106"/>
<stop offset="1" stop-color="#0B011B"/>
</linearGradient>
</defs>
</svg>
