<svg width="1024" height="1024" viewBox="0 0 1024 1024" fill="none" xmlns="http://www.w3.org/2000/svg">
<g clip-path="url(#clip0_221_2)">
<path d="M0 0H125.115H889.883H1024V120.591V901.844V1024H891.869H129.804H0V896.829V128.646V0Z" fill="#00F5FF"/>
<path d="M921.484 941.966C917.353 945.627 912.038 948.991 907.542 952.077C887.119 966.096 862.071 974.996 837.255 976.064C824.768 976.601 811.113 975.963 798.247 975.943L716.764 975.899L459.277 975.904L273.692 975.786L223.332 975.793C205.075 975.815 188.314 976.261 170.231 973.219C143.957 968.799 116.498 955.174 96.689 937.548C68.3461 911.871 51.1428 876.147 48.7407 837.979C47.7798 820.962 48.4342 798.771 48.4236 781.166C48.2426 743.786 48.3418 706.404 48.721 669.025L48.6089 398.325L48.7075 254.521L48.5104 211.815C48.4292 197.611 47.9088 185.581 50.0747 171.227C54.2068 143.841 66.1581 118.531 84.4757 97.7983C87.3673 94.5255 94.4907 89.1521 97.8428 86.119C123.238 63.1392 159.538 48.8946 193.804 48.3029C205.098 48.1078 216.842 48.1662 228.541 48.2455C247.633 48.485 266.726 48.5211 285.818 48.3539L607.555 48.5545L765.958 48.1001L806.361 48.092C821.896 48.078 837.143 47.7724 852.344 50.4086C913.518 61.1111 962.781 107.756 972.27 169.833C975.282 189.541 974.435 206.978 974.42 226.782L974.246 315.453L974.498 638.296L974.546 774.773L974.521 813.132C974.501 826.965 974.874 839.354 972.323 853.208C968.28 875.163 958.94 898.229 945.929 916.435C941.7 922.352 936.39 927.91 931.45 933.194C912.32 882.906 894.436 832.119 874.992 781.948C871.019 771.696 867.659 761.424 862.916 751.469C856.104 755.66 849.06 760.834 841.868 765.291C843.126 769.024 844.405 772.75 845.705 776.469C854.375 796.79 862.04 818.225 870.647 838.703L891.906 889.149C896.004 898.934 900.635 909.536 904.214 919.484C897.787 917.682 891.639 914.806 885.308 912.764C845.697 899.986 804.923 890.839 765.311 878.053C756.965 875.359 748.603 873.21 740.268 870.3C736.149 875.73 729.764 882.041 725.051 887.652C770.002 901.635 815.263 914.606 860.798 926.553C880.597 931.825 901.456 938.824 921.484 941.966Z" fill="#610675"/>
<path d="M416.103 379.542C426.639 388.163 438.672 400.925 448.53 410.811C466.752 429.295 485.118 447.636 503.627 465.833C563.738 524.187 625.025 581.318 687.448 637.191C726.099 671.068 765.175 704.456 804.667 737.347C811.196 742.791 836.052 759.991 839.353 765.175L841.868 765.291C843.126 769.024 844.405 772.75 845.705 776.469C844.599 776.067 844.744 776.239 843.979 775.314L844.411 775.912C844.106 777.145 844.226 777.768 844.161 779.007C845.492 784.711 853.814 804.931 856.22 811.516C867.562 842.563 880.317 872.579 890.933 903.957C888.917 902.638 886.958 901.233 885.062 899.746C865.368 884.468 847.7 863.448 830.574 845.495C808.466 822.47 786.073 799.721 763.4 777.252L517.838 535.386C498.059 515.971 477.924 496.922 457.445 478.247C448.411 469.944 437.316 460.049 428.5 451.24C427.982 450.723 427.727 448.287 427.619 447.416C427.07 448.849 426.985 449.05 426.18 450.35C425.37 443.576 423.675 436.718 422.241 430.021L422.672 430.118L423.248 430.655L423.384 430.398C423.187 428.482 423.36 428.166 424.176 426.414C421.136 411.06 419.145 395.087 416.103 379.542Z" fill="#00F5FF"/>
<path d="M424.176 426.414C425.4 433.412 426.667 440.375 427.619 447.416C427.07 448.849 426.985 449.05 426.18 450.35C425.37 443.576 423.675 436.718 422.241 430.021L422.672 430.118L423.248 430.655L423.384 430.398C423.187 428.482 423.36 428.166 424.176 426.414Z" fill="#5A1F77"/>
<path d="M839.354 765.175L841.868 765.291C843.126 769.024 844.406 772.75 845.706 776.469C844.6 776.067 844.744 776.239 843.979 775.314L844.411 775.912C844.106 777.145 844.226 777.768 844.161 779.007C842.558 775.181 840.273 769.13 839.354 765.175Z" fill="#5A1F77"/>
<path d="M324.152 422.678C333.74 410.878 351.055 394.695 362.355 383.826C376.281 370.432 387.853 357.558 401.13 343.926C408.356 372.055 414.707 402.26 422.241 430.021C423.675 436.718 425.37 443.576 426.18 450.35C414.781 447.791 396.821 441.668 385.073 438.266C364.895 432.576 344.582 427.378 324.152 422.678Z" fill="#00F5FF"/>
<path d="M353.255 440.1C357.427 440.767 361.718 441.579 365.835 442.529C386.026 447.185 406.425 450.473 426.736 454.416C429.133 456.758 431.436 459.846 433.684 462.385C454.753 486.18 476.133 510.147 498.345 532.855C569.742 604.588 641.756 675.704 714.38 746.195L758.692 789.003C772.073 802.126 785.073 815.415 798.987 828.042C813.897 841.756 829.074 855.178 844.509 868.299C850.672 873.639 874.817 894.411 879.122 900.434C838.58 886.922 796.299 876.162 755.139 864.537C749.424 862.922 743.501 861.817 737.893 859.837C726.753 847.064 715.662 830.97 704.384 818.034C692.36 804.242 680.145 790.194 668.018 776.518C599.526 700.621 530.278 625.411 460.283 550.899C447.267 536.783 434.089 523.062 420.641 509.362C412.59 501.16 404.768 492.418 396.644 484.315L367.523 455.396C363.386 451.21 356.576 444.608 353.255 440.1Z" fill="#00F5FF"/>
<path d="M470.773 187.726C502.311 188.48 527.122 198.433 539.724 229.43C547.11 247.597 546.83 262.29 546.394 281.413C536.862 269.957 526.137 257.621 510.077 257.894C495.273 258.146 489.674 265.642 479.928 275.367C471.966 283.277 464.099 291.283 456.329 299.381C443.318 312.781 429.642 325.925 416.504 339.382C416.576 334.981 416.495 333.873 414.896 329.768C420.841 321.941 428.396 314.497 435.269 307.403C442.861 299.579 450.389 291.692 457.852 283.745C474.593 265.993 479.524 261.514 472.165 236.16C482.828 235.491 492.933 234.714 503.011 238.98C504.472 239.598 509.281 241.999 510.426 241.698C495.288 231.41 488.241 229.002 469.764 228.504L465.618 216.87C489.182 215.383 506.443 224.211 525.055 236.833C510.091 218.169 492.519 207.196 467.817 207.556C460.748 207.659 453.711 208.653 446.649 209.132C449.147 213.277 452.14 217.112 454.495 221.52C460.731 233.196 462.705 246.218 464.609 259.102C459.267 265.535 450.004 274.339 443.863 280.726L393.188 333.096C362.584 365.577 331.49 397.592 299.917 429.131C289.874 439.242 279.766 449.288 269.594 459.269C262.701 466.064 249.399 481.091 240.153 483.236C221.842 487.484 209.558 480.136 194.708 470.45C197.498 486.975 199.613 507.875 206.628 523.015C214.515 537.782 225.555 543.533 240.58 549.398C220.449 534.577 209.621 520.596 213.164 494.212L222.145 496.842C221.723 509.72 227.36 519.416 237.203 527.385C231.571 517.849 230.84 508.689 232.761 497.956C237.735 497.074 248.59 495.9 252.825 492.838C265.145 483.931 277.015 469.197 288.028 458.466C297.895 448.853 307.502 439.471 317.179 429.972C318.809 431.652 320.374 432.911 322.159 434.406C317.287 441.676 311.068 447.465 305.06 453.808C298.008 461.116 291.27 468.598 284.048 475.76C270.335 489.359 250.834 504.677 251.134 526.011C251.366 542.494 269.393 552.872 280.21 562.837C265.166 563.48 253.353 567.183 237.45 565.746C194.334 561.85 177.78 519.747 179.558 481.354C180.295 465.455 181.551 450.085 183.074 434.325C184.391 435.876 185.746 437.395 187.136 438.881C195.754 448.218 223.664 473.772 237.215 460.886C264.392 435.045 290.691 407.712 316.414 380.409C342.319 353.385 368.587 326.712 395.211 300.397C411.311 284.191 428.737 265.32 445.276 249.985C441.202 234.684 436.13 222.543 426.038 210.085C422.2 205.347 418.079 201.033 414.289 196.228C431.082 191.989 453.668 188.266 470.773 187.726Z" fill="#00F5FF"/>
<path d="M424.349 342.252C426.398 342.979 485.937 403.634 493.477 410.923L617.309 530.286C639.307 551.121 660.398 571.184 683.12 591.36C719.973 624.01 757.101 656.349 794.5 688.373L837.242 724.131C844.295 730.043 852.179 736.357 858.888 742.563C854.85 745.471 850.948 747.993 846.777 750.683L840.29 754.717C793.778 719.597 748.451 682.935 704.383 644.792C628.739 580.005 556.073 511.82 486.607 440.448L446.025 398.997C426.379 378.835 423.706 379.153 416.162 351.389C419.249 348.179 421.534 345.688 424.349 342.252Z" fill="#00F5FF"/>
<path d="M337.063 437.936C339.368 440.191 341.802 442.298 344.273 444.368C358.574 456.346 372 469.404 385.214 482.585C468.883 567.038 550.359 653.635 629.562 742.29C654.426 770.239 678.716 798.693 702.415 827.636C709.633 836.498 716.807 845.235 723.425 854.562C725.95 858.121 728.888 862.243 731.985 865.233L717.376 881.89C717.029 881.858 716.681 881.826 716.333 881.794C705.372 866.29 664.879 819.526 655.145 808.139C628.769 777.286 604.227 751.128 578.409 722.963C518.562 657.969 458.078 593.565 396.965 529.761C372.726 504.144 346.119 478.303 322.868 452.034C327.544 446.876 331.637 442.358 337.063 437.936Z" fill="#00F5FF"/>
<path d="M139.761 83.2035C165.983 82.3741 189.045 97.0794 199.659 120.976C205.473 134.068 205.778 145.472 203.684 159.389L186.803 162.372C188.855 149.883 189.437 139.535 183.953 127.927C168.286 94.7578 123.462 90.7004 104.375 123.12C97.5192 134.765 95.5634 145.827 98.7794 158.909C101.225 169.013 107.137 177.939 115.485 184.134C128.771 193.89 141.548 194.191 157.304 191.751C154.699 197.847 154.586 202.25 154.363 208.795C134.649 212.224 117.398 209.813 101.654 196.641C88.9714 186.027 81.1161 170.739 79.8723 154.249C76.8892 116.08 101.134 85.8816 139.761 83.2035Z" fill="#00F5FF"/>
<path d="M135.613 107.283C156.958 104.153 176.835 118.815 180.148 140.132C183.46 161.449 168.97 181.451 147.682 184.946C126.134 188.484 105.835 173.777 102.482 152.201C99.1287 130.624 114.009 110.451 135.613 107.283Z" fill="#00F5FF"/>
<path d="M138.259 116.642C146.007 115.881 152.265 116.144 159.204 120.528C172.846 129.041 174.497 150.25 165.954 163.01C150.665 185.845 116.447 180.603 110.996 152.533C110.32 147.654 110.611 142.637 110.996 137.752C112.231 147.347 115.945 157.446 123.743 163.63C128.71 167.622 135.118 169.36 141.422 168.424C168.719 164.18 169.487 126.357 143.217 119.429C141.083 118.866 136.258 119.213 134.704 118.173C135.695 117.118 136.82 117.019 138.259 116.642Z" fill="#610675"/>
<path d="M332.753 294.157C346.95 291.98 351.907 302.875 360.766 311.944C345.172 314.562 335.281 316.91 322.544 327.248C310.247 337.228 304.987 346.893 301.015 361.998L299.034 371.236C293.414 365.918 281.976 356.379 281.263 348.745C278.766 322.006 308.729 297.667 332.753 294.157Z" fill="#00F5FF"/>
<path d="M285.918 243.7C286.832 243.59 287.753 243.55 288.673 243.581C295.807 243.754 307.644 256.805 312.838 262.146C294.003 263.393 280.708 269.636 267.114 282.832C258.167 291.518 252.867 299.424 250.095 311.597C249.687 314.268 249.448 317.155 249.168 319.857C243.741 314.947 231.562 303.808 231.428 296.579C230.929 269.582 262.289 246.212 285.918 243.7Z" fill="#00F5FF"/>
<path d="M308.165 269.114C321.82 267.465 328.644 277.33 336.424 286.977C327.425 287.785 317.876 289.233 309.782 293.436C292.814 302.248 281.518 315.028 275.329 332.889C274.46 336.361 273.76 340.087 273.04 343.612C255.902 329.186 250.288 319.065 263.906 298.878C274.195 283.547 290.085 272.861 308.165 269.114Z" fill="#00F5FF"/>
<path d="M235.853 195.179C248.511 193.719 255.811 203.896 262.631 212.786C238.162 214.045 208.718 235.179 202.246 259.145C201.426 262.269 201.155 265.137 200.767 268.336C196.335 264.239 183.295 251.688 183.347 246.577C183.604 221.376 213.707 198.021 235.853 195.179Z" fill="#00F5FF"/>
<path d="M261.819 219.186C272.89 218.496 280.808 230.238 287.513 238C259.74 238.863 234.756 258.545 225.863 284.587C225.301 287.205 224.831 290.39 224.364 293.071C219.364 288.283 207.797 277.956 207.794 271.319C207.783 246.22 239.664 221.512 261.819 219.186Z" fill="#00F5FF"/>
<path d="M928.52 228.464C933.327 234.225 943.095 248.816 946.163 256.846C947.071 259.225 946.957 264.974 946.987 267.567C947.401 303.08 949.515 338.553 949.458 374.088C948.347 372.809 944.659 366.684 943.475 364.806C940.119 359.437 936.642 354.144 933.047 348.931C932.584 327.397 933.318 305.579 932.593 284.118C932.212 272.846 930.453 259.949 929.852 248.547C929.502 241.916 928.277 235.187 928.52 228.464Z" fill="#00F5FF"/>
<path d="M212.398 173.177C224.587 172.011 230.408 179.696 237.059 188.432C231.643 188.653 226.291 189.69 221.185 191.51C203.028 197.81 187.628 213.148 179.278 230.289C178.097 233.23 176.988 237.246 176.038 240.358C146.972 214.656 183.659 177.167 212.398 173.177Z" fill="#00F5FF"/>
<path d="M78.6608 559.87C80.3419 567.148 95.1428 747.233 94.5291 749.147L93.7783 748.382C89.1972 738.069 78.2787 720.689 75.207 711.464C73.6623 706.825 75.7277 674.627 75.8369 668.478C76.1224 641.753 76.7185 615.032 77.625 588.321C77.8294 582.066 77.7013 565.26 78.6608 559.87Z" fill="#00F5FF"/>
<path d="M73.9414 802.786C74.7377 803.238 97.2549 827.102 97.947 828.921C103.321 843.046 113.817 878.282 117.142 892.132C109.832 891.106 102.404 889.978 95.0674 889.28C89.2751 870.685 84.0614 851.914 79.4337 832.996C77.2956 824.142 74.2306 811.717 73.9414 802.786Z" fill="#00F5FF"/>
<path d="M108.335 703.244C109.87 704.474 125.432 769.245 129.017 778.467C131.904 785.891 140.191 794.486 145.093 801.113L170.448 835.319C178.373 845.862 187.215 857.29 194.461 868.232C192.953 867.667 191.693 866.332 190.526 865.223C167.096 842.833 144.992 819.097 124.324 794.135C122.33 791.677 115.766 783.883 115.124 781.404C113.567 775.397 112.949 765.889 112.422 759.592C110.88 741.142 108.785 721.711 108.335 703.244Z" fill="#00F5FF"/>
<path d="M848.783 130.425C854.198 130.414 859.184 135.906 862.022 139.77C865.9 145.049 901.324 184.188 902.09 188.319C906.64 212.854 912.121 249.75 910.951 274.163C907.577 271.273 897.683 213.015 893.366 205.708C878.916 181.248 863.447 154.477 848.783 130.425Z" fill="#00F5FF"/>
<path d="M668.838 77.67C673.926 77.1466 686.061 77.3725 691.641 77.3927C703.751 77.4365 716.794 77.0226 728.792 77.4809C750.602 91.8638 773.076 102.017 794.228 116.117C790.479 115.609 774.493 110.202 769.618 108.81C745.493 101.919 721.479 94.6495 697.584 87.0027C689.283 84.3389 676.586 80.8056 668.838 77.67Z" fill="#00F5FF"/>
<path d="M808.288 76.5563C812.284 76.2669 817.414 76.5239 821.517 76.484C845.416 76.2516 863.106 80.1189 884.559 90.3478C883.813 98.895 884.449 104.783 885.088 113.336C876.017 113.171 820.399 82.6482 808.288 76.5563Z" fill="#00F5FF"/>
<path d="M113.438 814.842C116.407 816.799 165.648 886.621 171.801 895.113C160.668 893.152 146.041 889.623 135.326 886.127C128.222 861.381 121.229 839.221 113.438 814.842Z" fill="#00F5FF"/>
<path d="M140.92 904.961C144.007 905.126 146.728 906.392 149.676 907.222C186.804 917.665 223.629 931.964 257.854 949.874C245.907 950.446 230.724 950.063 218.614 949.939C207.538 943.041 197.603 938.092 186.333 931.765C171.049 923.081 155.909 914.145 140.92 904.961Z" fill="#00F5FF"/>
<path d="M191.86 890.666C203.406 893.035 213.894 897.968 224.93 901.379C249.206 908.881 272.6 919.805 296.784 927.086C295.037 927.74 292.926 928.355 291.123 928.934C284.3 931.036 278.296 932.765 271.169 933.816C250.907 922.298 228.372 912.43 208.123 900.41C204.662 898.355 194.524 893.122 191.86 890.666Z" fill="#00F5FF"/>
<path d="M920.966 136.668C923.074 136.698 925.37 136.858 927.493 136.961C932.493 150.057 936.801 169.088 940.479 182.93C943.44 194.07 949.286 213.559 950.562 224.318C947.898 221.739 928.722 195.095 928.286 192.411C925.935 177.948 922.389 151.326 920.966 136.668Z" fill="#00F5FF"/>
<path d="M909.469 356.79C914.001 361.962 920.183 371.51 924.369 377.532C931.947 388.433 939.977 399.764 947.014 410.956C946.477 417.467 946.466 424.202 946.345 430.747C946.435 440.152 946.89 452.721 946.582 461.893C945.783 459.152 944.903 456.493 944.497 453.673C941.319 441.686 940.095 426.004 935.53 414.553C927.832 395.242 916.637 376.417 909.469 356.79Z" fill="#00F5FF"/>
<path d="M944.497 453.673C947.233 450.146 945.958 437.051 946.3 431.413L946.345 430.747C946.435 440.152 946.89 452.721 946.582 461.893C945.783 459.152 944.903 456.493 944.497 453.673Z" fill="#00F5FF"/>
<path d="M356.302 320.158L357.17 320.276C357.038 322.623 314.961 364.543 308.826 370.477C308.427 370.742 308.696 370.629 307.952 370.549C307.609 368.609 308.207 363.928 308.613 361.932C312.935 340.699 335.882 323.178 356.302 320.158Z" fill="#00F5FF"/>
<path d="M81.2993 451.135C82.3183 454.214 83.7326 461.395 84.455 464.991C86.2792 474.07 91.2987 489.452 91.505 497.893C91.5731 500.679 87.8246 519.635 87.1654 520.629C83.5038 507.485 79.6536 494.395 75.6162 481.362C78.2948 470.396 79.2218 461.764 81.2993 451.135Z" fill="#00F5FF"/>
<path d="M695.822 462.983C697.871 462.801 699.738 462.798 700.771 465.063C704.708 473.694 703.371 486.255 701.777 495.358C700.958 500.035 698.867 502.711 695.192 505.022C689.558 503.683 688.925 496.574 688.347 491.731C687.195 482.087 687.581 469.605 695.822 462.983Z" fill="#00F5FF"/>
<path d="M562.236 813.715C566.64 813.548 580.539 813.92 577.631 820.898C576.079 824.622 555.351 828.011 551.132 828.898C546.717 829.6 537.694 830.723 535.829 825.304C536.289 815.187 554.975 814.059 562.236 813.715Z" fill="#00F5FF"/>
<path d="M876.352 128.836C882.307 129.085 897.95 133.395 903.799 135.17C906.247 145.51 907.31 155.684 908.638 166.196C904.696 163.372 879.619 133.81 876.352 128.836Z" fill="#00F5FF"/>
<path d="M560.874 381.423C565.526 381.784 567.983 384.292 570.479 388.46C574.692 395.498 581.471 404.861 580.739 413.435C580.574 415.365 578.589 416.613 577.098 417.524C570.085 417.044 557.413 392.521 557.033 385.561C556.95 384.045 559.711 382.201 560.874 381.423Z" fill="#00F5FF"/>
<path d="M817.544 576.476C834.242 576.576 817.965 605.497 810.468 610.488C798.687 609.824 805.182 598.353 807.706 591.595C809.713 586.223 812.79 579.836 817.544 576.476Z" fill="#00F5FF"/>
<path d="M384.545 668.1C391.184 667.383 414.23 669.526 417.716 675.46C417.851 679.422 415.787 679.967 412.471 681.124C405.102 681.664 384.65 681.612 379.053 676.11C375.514 672.631 381.817 669.254 384.545 668.1Z" fill="#00F5FF"/>
<path d="M321.958 938.499C331.379 942.486 342.052 946.235 351.717 950.047C342.296 951.136 327.581 950.629 317.75 950.528C307.605 950.471 296.947 950.07 286.776 949.834C295.431 948.052 313.354 941.743 321.958 938.499Z" fill="#00F5FF"/>
<path d="M107.799 910.41C117.432 911.602 160.577 938.211 170.046 945.488C151.694 942.367 120.04 924.752 107.799 910.41Z" fill="#00F5FF"/>
<path d="M902.906 99.5061C907.167 102.188 920.331 114.91 921.632 119.265C915.721 119.432 909.46 119.179 903.522 119.043C903.104 114.121 902.098 103.97 902.906 99.5061Z" fill="#00F5FF"/>
<path d="M72.526 747.367C74.9555 750.968 87.5841 787.401 89.1924 793.173C86.0839 790.811 74.8383 770.032 73.2033 765.394C72.3411 762.948 72.4784 750.969 72.526 747.367Z" fill="#00F5FF"/>
<path d="M783.944 82.0913C795.202 87.7917 805.12 93.2978 815.912 99.9014C821.752 103.475 827.664 106.492 833.461 110.326L832.133 111.924C813.239 102.97 799.988 95.0436 782.553 83.5634L783.944 82.0913Z" fill="#00F5FF"/>
<path d="M782.553 83.5634C779.221 81.301 776.789 79.6466 773.732 77.061C777.228 78.6594 780.52 80.3442 783.944 82.0913L782.553 83.5634Z" fill="#00F5FF"/>
<path d="M833.461 110.326C836.336 112.011 837.8 113.13 840.428 115.15C837.302 114.112 835.067 113.438 832.133 111.924L833.461 110.326Z" fill="#00F5FF"/>
</g>
<defs>
<clipPath id="clip0_221_2">
<rect width="1024" height="1024" rx="80" fill="white"/>
</clipPath>
</defs>
</svg>
