<svg width="853" height="874" viewBox="0 0 853 874" fill="none" xmlns="http://www.w3.org/2000/svg">
<g clip-path="url(#clip0_234_3)">
<path d="M699.188 653.089L701.282 653.188C702.33 656.374 703.396 659.554 704.479 662.728C703.557 662.385 703.678 662.532 703.041 661.743L703.401 662.253C703.147 663.305 703.247 663.837 703.193 664.895C701.857 661.629 699.953 656.465 699.188 653.089Z" fill="#5A1F77"/>
<path d="M773.464 194.998C777.468 199.915 785.605 212.368 788.161 219.222C788.917 221.253 788.822 226.159 788.847 228.373C789.192 258.683 790.953 288.96 790.905 319.29C789.98 318.198 786.908 312.97 785.921 311.368C783.126 306.785 780.23 302.267 777.235 297.818C776.849 279.438 777.461 260.816 776.857 242.499C776.539 232.878 775.074 221.87 774.573 212.139C774.282 206.479 773.261 200.736 773.464 194.998Z" fill="#00F5FF"/>
<path d="M707.043 111.32C711.554 111.31 715.707 115.998 718.071 119.296C721.302 123.802 750.81 157.207 751.448 160.733C755.238 181.674 759.804 213.166 758.829 234.002C756.019 231.536 747.777 181.812 744.181 175.575C732.144 154.698 719.258 131.849 707.043 111.32Z" fill="#00F5FF"/>
<path d="M673.311 65.342C676.639 65.095 680.913 65.3144 684.33 65.2803C704.238 65.0819 718.974 68.3827 736.845 77.1133C736.223 84.4084 736.753 89.4338 737.286 96.734C729.729 96.5931 683.399 70.5415 673.311 65.342Z" fill="#00F5FF"/>
<path d="M767.172 116.648C768.928 116.674 770.84 116.81 772.609 116.898C776.774 128.076 780.363 144.319 783.426 156.134C785.893 165.642 790.763 182.276 791.826 191.459C789.606 189.258 773.633 166.517 773.269 164.226C771.311 151.881 768.357 129.159 767.172 116.648Z" fill="#00F5FF"/>
<path d="M757.595 304.526C761.37 308.94 766.52 317.09 770.007 322.23C776.319 331.534 783.008 341.205 788.87 350.757C788.423 356.315 788.413 362.063 788.313 367.649C788.388 375.677 788.767 386.404 788.51 394.233C787.845 391.893 787.112 389.624 786.773 387.217C784.126 376.986 783.106 363.601 779.304 353.827C772.891 337.345 763.566 321.278 757.595 304.526Z" fill="#00F5FF"/>
<path d="M786.773 387.217C789.053 384.207 787.99 373.03 788.275 368.218L788.313 367.649C788.388 375.677 788.767 386.405 788.51 394.233C787.845 391.894 787.112 389.624 786.773 387.217Z" fill="#00F5FF"/>
<path d="M730.008 109.964C734.968 110.176 747.999 113.855 752.871 115.37C754.911 124.195 755.796 132.879 756.902 141.851C753.619 139.441 732.729 114.209 730.008 109.964Z" fill="#00F5FF"/>
<path d="M681.02 492.031C694.93 492.117 681.371 516.801 675.126 521.061C665.312 520.494 670.723 510.704 672.825 504.936C674.497 500.35 677.06 494.899 681.02 492.031Z" fill="#00F5FF"/>
<path d="M752.128 84.9299C755.678 87.219 766.643 98.0774 767.727 101.794C762.803 101.937 757.588 101.721 752.641 101.605C752.293 97.404 751.455 88.7399 752.128 84.9299Z" fill="#00F5FF"/>
<path d="M0 0H106.723H759.07H873.472V102.926V769.738V874H760.764H110.723H0V765.458V109.801V0Z" fill="#610675"/>
<path d="M187.663 154.359C205.87 151.688 222.826 164.202 225.652 182.396C228.477 200.591 216.117 217.663 197.958 220.646C179.578 223.666 162.263 211.113 159.402 192.697C156.542 174.281 169.235 157.063 187.663 154.359Z" fill="#591060"/>
<circle cx="426" cy="437" r="419.5" stroke="#00F5FF" stroke-width="35"/>
<path d="M593.536 395.163C595.284 395.008 596.876 395.005 597.757 396.938C601.116 404.305 599.975 415.026 598.616 422.796C597.917 426.788 596.133 429.072 592.999 431.044C588.193 429.901 587.653 423.834 587.16 419.7C586.177 411.469 586.506 400.815 593.536 395.163Z" fill="#00F5FF"/>
<path d="M470.389 688.857C474.146 688.714 486.002 689.032 483.521 694.988C482.198 698.166 464.517 701.059 460.918 701.816C457.152 702.415 449.455 703.373 447.864 698.748C448.257 690.113 464.196 689.15 470.389 688.857Z" fill="#00F5FF"/>
<path d="M528.908 637.067C528.908 583.145 572.633 539.432 626.571 539.432H642.337C696.275 539.432 740 583.145 740 637.067C740 690.989 696.275 734.702 642.337 734.702H626.571C572.633 734.702 528.908 690.989 528.908 637.067Z" fill="#00F5FF"/>
<path d="M702.774 713.249C705.84 715.876 698.955 717.126 696.009 719.147C682.628 728.33 666.217 734.16 649.959 734.859C641.777 735.211 632.831 734.793 624.402 734.78L247.732 734.682C235.77 734.696 224.789 734.988 212.941 732.996C195.727 730.101 177.737 721.176 164.758 709.63C146.189 692.811 134.918 669.411 133.344 644.41C132.714 633.263 133.143 618.728 133.136 607.196C133.018 582.711 133.083 558.225 133.331 533.74L133.258 356.424L133.322 262.228L133.193 234.255C133.14 224.951 132.799 217.071 134.218 207.668C136.925 189.73 144.755 173.151 156.757 159.571C158.651 157.427 163.318 153.907 165.514 151.92C182.153 136.868 205.936 127.537 228.386 127.15C235.785 127.022 243.48 127.06 251.145 127.112C263.653 127.269 276.163 127.293 288.671 127.183L499.465 127.314L603.247 127.017L629.718 127.011C639.896 127.002 649.885 126.802 659.845 128.529C699.924 135.539 732.2 166.093 738.417 206.755C740.39 219.665 739.835 231.086 739.826 244.059L739.712 302.141L739.908 603.008L739.892 628.134C739.879 637.195 740.123 645.311 738.452 654.385C735.803 668.766 729.684 683.875 721.159 695.801C718.388 699.677 714.332 704.583 711.095 708.044C698.562 675.104 687.422 640.571 674.683 607.708C672.08 600.993 669.879 594.264 666.771 587.743C662.308 590.489 657.693 593.878 652.981 596.797C653.805 599.242 654.643 601.683 655.495 604.119C661.175 617.43 666.197 631.47 671.836 644.884L685.765 677.928C688.449 684.337 691.484 691.282 693.828 697.798C689.618 696.618 685.59 694.734 681.442 693.396C655.49 685.026 628.775 679.035 602.823 670.659C597.355 668.895 591.876 667.487 586.415 665.581C583.717 669.138 579.533 673.272 576.445 676.947C605.896 686.106 635.55 694.603 665.383 702.428C678.355 705.882 699.709 710.622 702.774 713.249Z" fill="#610675"/>
<path d="M374.03 344.121C380.933 349.768 388.817 358.127 395.276 364.603C407.214 376.71 419.247 388.724 431.374 400.644C470.757 438.867 510.911 476.29 551.809 512.888C577.132 535.078 602.734 556.949 628.608 578.493C632.885 582.059 649.17 593.326 651.333 596.721L652.981 596.797C653.805 599.242 654.643 601.683 655.495 604.119C654.77 603.856 654.865 603.969 654.364 603.363L654.647 603.754C654.447 604.562 654.526 604.97 654.483 605.782C655.355 609.518 660.807 622.763 662.384 627.076C669.815 647.413 678.172 667.074 685.127 687.627C683.806 686.763 682.523 685.843 681.28 684.869C668.377 674.862 656.802 661.093 645.581 649.333C631.097 634.251 616.425 619.35 601.571 604.632L440.685 446.203C427.726 433.486 414.534 421.008 401.117 408.775C395.198 403.337 387.929 396.855 382.153 391.085C381.813 390.746 381.646 389.151 381.575 388.58C381.216 389.519 381.16 389.65 380.633 390.502C380.102 386.065 378.991 381.573 378.052 377.186L378.334 377.249L378.712 377.601L378.801 377.433C378.672 376.178 378.785 375.971 379.32 374.823C377.328 364.766 376.023 354.303 374.03 344.121Z" fill="#00F5FF"/>
<path d="M386.384 379.168C387.186 383.752 388.016 388.313 388.64 392.925C388.28 393.864 388.224 393.995 387.697 394.847C387.166 390.41 386.056 385.918 385.116 381.531L385.398 381.594L385.776 381.946L385.865 381.778C385.736 380.523 385.849 380.316 386.384 379.168Z" fill="#5A1F77"/>
<path d="M313.786 372.376C320.068 364.647 331.413 354.046 338.816 346.927C347.94 338.153 355.522 329.72 364.221 320.791C368.955 339.216 373.116 359.002 378.052 377.186C378.991 381.573 380.102 386.065 380.633 390.502C373.164 388.826 361.397 384.815 353.7 382.586C340.48 378.859 327.172 375.455 313.786 372.376Z" fill="#00F5FF"/>
<path d="M332.854 383.788C335.587 384.225 338.398 384.757 341.096 385.379C354.324 388.429 367.689 390.583 380.996 393.165C382.567 394.699 384.076 396.722 385.549 398.385C399.353 413.972 413.36 429.671 427.913 444.545C474.69 491.532 521.872 538.115 569.454 584.289L598.486 612.329C607.252 620.925 615.77 629.63 624.886 637.901C634.655 646.884 644.598 655.676 654.711 664.27C658.749 667.768 674.568 681.375 677.388 685.32C650.826 676.469 623.125 669.421 596.158 661.806C592.413 660.748 588.533 660.025 584.859 658.728C577.56 650.361 570.293 639.819 562.904 631.345C555.027 622.311 547.024 613.109 539.078 604.151C494.204 554.437 448.835 505.172 402.976 456.364C394.448 447.118 385.814 438.13 377.003 429.157C371.728 423.784 366.604 418.058 361.281 412.75L342.202 393.807C339.491 391.065 335.029 386.741 332.854 383.788Z" fill="#00F5FF"/>
<path d="M409.849 218.476C430.512 218.97 446.768 225.489 455.024 245.793C459.863 257.693 459.68 267.317 459.394 279.843C453.149 272.339 446.122 264.259 435.6 264.438C425.901 264.603 422.233 269.513 415.847 275.883C410.631 281.064 405.477 286.309 400.386 291.613C391.861 300.39 382.901 309 374.294 317.815C374.341 314.932 374.288 314.206 373.24 311.517C377.135 306.39 382.085 301.514 386.588 296.868C391.562 291.743 396.494 286.577 401.384 281.371C412.352 269.743 415.583 266.809 410.761 250.202C417.747 249.763 424.368 249.254 430.971 252.049C431.928 252.453 435.079 254.026 435.829 253.829C425.911 247.09 421.294 245.513 409.188 245.187L406.472 237.566C421.91 236.592 433.219 242.375 445.413 250.642C435.609 238.417 424.097 231.229 407.913 231.465C403.281 231.533 398.671 232.184 394.044 232.497C395.68 235.212 397.641 237.725 399.184 240.612C403.27 248.26 404.563 256.79 405.811 265.229C402.311 269.443 396.242 275.21 392.218 279.394L359.017 313.697C338.967 334.973 318.595 355.944 297.909 376.603C291.329 383.226 284.706 389.806 278.042 396.344C273.526 400.795 264.811 410.638 258.753 412.043C246.756 414.826 238.708 410.013 228.978 403.668C230.806 414.492 232.192 428.183 236.788 438.1C241.955 447.772 249.189 451.54 259.033 455.381C245.843 445.673 238.749 436.515 241.07 419.233L246.954 420.956C246.678 429.391 250.371 435.742 256.82 440.962C253.13 434.716 252.651 428.716 253.91 421.685C257.169 421.108 264.281 420.339 267.055 418.333C275.127 412.499 282.904 402.847 290.119 395.818C296.584 389.521 302.878 383.376 309.218 377.154C310.286 378.254 311.312 379.079 312.481 380.058C309.289 384.82 305.215 388.612 301.278 392.767C296.658 397.554 292.243 402.455 287.512 407.146C278.527 416.054 265.751 426.088 265.947 440.062C266.099 450.859 277.91 457.657 284.997 464.184C275.141 464.605 267.401 467.031 256.982 466.09C228.733 463.538 217.888 435.959 219.053 410.81C219.535 400.396 220.358 390.328 221.356 380.005C222.219 381.021 223.107 382.016 224.017 382.99C229.664 389.106 247.95 405.844 256.828 397.403C274.634 380.477 291.864 362.573 308.717 344.689C325.689 326.987 342.9 309.516 360.343 292.279C370.891 281.663 382.308 269.302 393.144 259.257C390.475 249.235 387.152 241.282 380.54 233.122C378.025 230.018 375.325 227.192 372.842 224.045C383.845 221.268 398.642 218.83 409.849 218.476Z" fill="#00F5FF"/>
<path d="M379.433 319.695C380.775 320.171 419.784 359.902 424.724 364.676L505.855 442.862C520.268 456.51 534.086 469.652 548.973 482.867C573.118 504.254 597.443 525.437 621.946 546.414L649.95 569.836C654.571 573.709 659.736 577.845 664.132 581.91C661.486 583.814 658.93 585.466 656.197 587.228L651.947 589.871C621.473 566.866 591.776 542.852 562.904 517.867C513.344 475.43 465.735 430.766 420.223 384.016L393.634 356.864C380.763 343.658 379.012 343.866 374.069 325.68C376.091 323.577 377.588 321.945 379.433 319.695Z" fill="#00F5FF"/>
<path d="M322.246 382.37C323.756 383.847 325.351 385.228 326.97 386.584C336.339 394.429 345.136 402.983 353.793 411.617C408.611 466.936 461.992 523.659 513.884 581.731C530.174 600.038 546.088 618.676 561.615 637.635C566.344 643.44 571.044 649.163 575.38 655.272C577.035 657.603 578.96 660.303 580.989 662.262L571.417 673.173C571.19 673.152 570.962 673.131 570.734 673.11C563.553 662.954 537.023 632.323 530.645 624.864C513.364 604.654 497.285 587.52 480.37 569.071C441.159 526.498 401.532 484.312 361.492 442.518C345.611 425.739 328.179 408.812 312.946 391.605C316.009 388.226 318.691 385.267 322.246 382.37Z" fill="#00F5FF"/>
<path d="M192.978 150.01C210.158 149.467 225.268 159.1 232.222 174.752C236.031 183.328 236.231 190.798 234.859 199.914L223.799 201.868C225.143 193.687 225.525 186.909 221.932 179.306C211.667 157.579 182.3 154.921 169.794 176.157C165.302 183.785 164.021 191.031 166.128 199.6C167.731 206.218 171.604 212.065 177.073 216.123C185.778 222.513 194.149 222.71 204.472 221.112C202.765 225.105 202.691 227.989 202.545 232.276C189.629 234.522 178.327 232.943 168.012 224.315C159.702 217.363 154.555 207.349 153.741 196.547C151.786 171.545 167.671 151.765 192.978 150.01Z" fill="#00F5FF"/>
<path d="M191.994 171.914C197.07 171.415 201.17 171.588 205.716 174.459C214.654 180.035 215.736 193.928 210.139 202.286C200.122 217.244 177.703 213.81 174.132 195.423C173.689 192.227 173.879 188.941 174.132 185.741C174.941 192.026 177.374 198.641 182.483 202.692C185.737 205.307 189.936 206.445 194.066 205.832C211.95 203.052 212.454 178.277 195.242 173.739C193.844 173.37 190.683 173.598 189.665 172.917C190.314 172.226 191.051 172.161 191.994 171.914Z" fill="#00F5FF"/>
<path d="M319.422 288.191C328.723 286.765 331.971 293.902 337.775 299.842C327.558 301.557 321.078 303.095 312.733 309.867C304.676 316.404 301.23 322.735 298.628 332.629L297.33 338.68C293.648 335.197 286.154 328.948 285.687 323.948C284.051 306.433 303.682 290.49 319.422 288.191Z" fill="#00F5FF"/>
<path d="M288.736 255.14C289.335 255.068 289.938 255.042 290.541 255.062C295.215 255.176 302.971 263.724 306.374 267.223C294.033 268.04 285.323 272.129 276.416 280.773C270.554 286.462 267.082 291.641 265.266 299.615C264.999 301.364 264.842 303.255 264.659 305.025C261.103 301.809 253.124 294.513 253.036 289.778C252.709 272.094 273.255 256.786 288.736 255.14Z" fill="#00F5FF"/>
<path d="M303.312 271.787C312.258 270.707 316.73 277.169 321.827 283.488C315.931 284.017 309.674 284.966 304.371 287.719C293.254 293.491 285.853 301.862 281.798 313.562C281.229 315.836 280.771 318.277 280.299 320.586C269.071 311.136 265.392 304.507 274.314 291.284C281.055 281.241 291.466 274.242 303.312 271.787Z" fill="#00F5FF"/>
<path d="M255.935 223.358C264.228 222.401 269.011 229.068 273.479 234.891C257.448 235.715 238.157 249.559 233.917 265.257C233.38 267.303 233.202 269.182 232.948 271.278C230.044 268.594 221.501 260.373 221.535 257.025C221.703 240.517 241.426 225.219 255.935 223.358Z" fill="#00F5FF"/>
<path d="M272.947 239.083C280.201 238.631 285.388 246.322 289.781 251.407C271.585 251.972 255.216 264.864 249.39 281.922C249.022 283.637 248.714 285.724 248.408 287.48C245.132 284.343 237.553 277.579 237.551 273.232C237.544 256.791 258.432 240.607 272.947 239.083Z" fill="#00F5FF"/>
<path d="M240.567 208.946C248.553 208.182 252.367 213.216 256.725 218.938C253.176 219.083 249.67 219.762 246.324 220.955C234.428 225.081 224.339 235.128 218.868 246.356C218.094 248.282 217.368 250.913 216.745 252.951C197.702 236.116 221.738 211.559 240.567 208.946Z" fill="#00F5FF"/>
<path d="M160.011 466.586C161.112 471.353 170.81 589.314 170.407 590.567L169.916 590.066C166.914 583.311 159.761 571.927 157.748 565.884C156.736 562.845 158.089 541.755 158.161 537.727C158.348 520.221 158.738 502.718 159.332 485.222C159.466 481.125 159.382 470.116 160.011 466.586Z" fill="#00F5FF"/>
<path d="M156.92 625.702C157.441 625.998 172.194 641.63 172.648 642.821C176.168 652.074 183.045 675.154 185.223 684.226C180.434 683.554 175.567 682.816 170.761 682.358C166.966 670.178 163.55 657.882 160.518 645.491C159.117 639.691 157.109 631.552 156.92 625.702Z" fill="#00F5FF"/>
<path d="M179.453 560.5C180.458 561.305 190.654 603.732 193.003 609.773C194.895 614.636 200.324 620.266 203.536 624.607L220.148 647.012C225.34 653.918 231.133 661.404 235.88 668.571C234.892 668.201 234.067 667.327 233.302 666.6C217.951 651.934 203.469 636.387 189.928 620.036C188.622 618.426 184.321 613.32 183.901 611.697C182.881 607.762 182.476 601.534 182.13 597.409C181.12 585.324 179.748 572.596 179.453 560.5Z" fill="#00F5FF"/>
<path d="M546.681 150.731C550.014 150.388 557.965 150.536 561.621 150.549C569.555 150.578 578.1 150.307 585.961 150.607C600.25 160.028 614.975 166.679 628.833 175.915C626.377 175.582 615.903 172.04 612.709 171.129C596.903 166.615 581.17 161.853 565.514 156.844C560.076 155.099 551.757 152.785 546.681 150.731Z" fill="#00F5FF"/>
<path d="M182.796 633.599C184.742 634.881 217.003 680.617 221.034 686.179C213.74 684.895 204.157 682.583 197.137 680.293C192.482 664.084 187.901 649.568 182.796 633.599Z" fill="#00F5FF"/>
<path d="M200.802 692.63C202.825 692.738 204.607 693.567 206.539 694.111C230.864 700.951 254.991 710.318 277.414 722.049C269.587 722.424 259.639 722.173 251.705 722.092C244.448 717.573 237.939 714.332 230.555 710.187C220.542 704.499 210.622 698.646 200.802 692.63Z" fill="#00F5FF"/>
<path d="M234.177 683.266C241.742 684.818 248.613 688.049 255.844 690.283C271.749 695.197 287.076 702.353 302.92 707.122C301.776 707.551 300.393 707.953 299.212 708.333C294.741 709.71 290.808 710.842 286.138 711.531C272.863 703.986 258.099 697.522 244.832 689.649C242.564 688.303 235.922 684.875 234.177 683.266Z" fill="#00F5FF"/>
<path d="M334.85 305.223L335.419 305.3C335.332 306.837 307.764 334.296 303.745 338.183C303.484 338.357 303.66 338.283 303.172 338.23C302.948 336.959 303.339 333.893 303.605 332.586C306.437 318.678 321.471 307.201 334.85 305.223Z" fill="#00F5FF"/>
<path d="M161.74 395.361C162.407 397.378 163.334 402.081 163.807 404.437C165.002 410.384 168.291 420.46 168.426 425.989C168.471 427.814 166.015 440.23 165.583 440.881C163.184 432.272 160.661 423.697 158.016 415.16C159.771 407.977 160.379 402.323 161.74 395.361Z" fill="#00F5FF"/>
<path d="M468.881 345.353C471.928 345.589 473.538 347.232 475.173 349.962C477.934 354.572 482.375 360.705 481.896 366.322C481.787 367.586 480.487 368.403 479.51 369C474.915 368.685 466.613 352.622 466.364 348.063C466.31 347.07 468.119 345.862 468.881 345.353Z" fill="#00F5FF"/>
<path d="M353.354 533.134C357.704 532.664 372.803 534.068 375.087 537.955C375.176 540.55 373.823 540.907 371.651 541.665C366.823 542.019 353.423 541.985 349.756 538.381C347.438 536.102 351.567 533.89 353.354 533.134Z" fill="#00F5FF"/>
<path d="M319.414 714.598C325.586 717.21 332.579 719.665 338.911 722.162C332.739 722.876 323.098 722.543 316.657 722.477C310.01 722.44 303.027 722.177 296.363 722.023C302.034 720.855 313.777 716.723 319.414 714.598Z" fill="#00F5FF"/>
<path d="M179.102 696.199C185.413 696.98 213.681 714.41 219.885 719.176C207.861 717.132 187.122 705.593 179.102 696.199Z" fill="#00F5FF"/>
<path d="M155.992 589.401C157.584 591.76 165.858 615.625 166.912 619.405C164.875 617.858 157.507 604.247 156.436 601.209C155.871 599.607 155.961 591.761 155.992 589.401Z" fill="#00F5FF"/>
<path d="M622.095 153.627C629.471 157.361 635.969 160.968 643.04 165.293C646.866 167.634 650.739 169.61 654.537 172.122L653.667 173.168C641.288 167.303 632.607 162.111 621.184 154.591L622.095 153.627Z" fill="#00F5FF"/>
<path d="M621.184 154.591C619.001 153.109 617.408 152.026 615.405 150.332C617.695 151.379 619.852 152.483 622.095 153.627L621.184 154.591Z" fill="#00F5FF"/>
<path d="M641.739 172.121C643.579 173.225 644.515 173.958 646.197 175.281C644.197 174.601 642.767 174.16 640.89 173.168L641.739 172.121Z" fill="#00F5FF"/>
<path d="M758.181 548.732C757.834 548.142 752.173 524.261 752.405 522.823C754.207 511.663 760.587 484.911 763.614 474.695C767.965 478.093 772.355 481.602 776.846 484.798C773.644 499.011 770 513.121 765.922 527.107C763.995 533.643 761.334 542.839 758.181 548.732Z" fill="#00F5FF"/>
<path d="M698.67 600.355C698.136 598.985 712.281 551.204 713.408 543.889C714.314 538 712.161 529.332 711.464 523.206L707.833 491.563C706.643 481.769 705.189 471.059 704.588 461.261C705.354 462.191 705.67 463.527 706.012 464.682C712.815 487.949 718.256 511.593 722.308 535.494C722.68 537.832 724.017 545.336 723.506 547.182C722.268 551.656 719.112 558.047 717.098 562.323C711.196 574.852 705.286 588.224 698.67 600.355Z" fill="#00F5FF"/>
<path d="M737.104 526.151C735.913 523.773 730.131 460.124 729.321 452.321C735.799 457.755 743.955 465.512 749.588 471.784C744.934 490.472 741.176 507.444 737.104 526.151Z" fill="#00F5FF"/>
<path d="M714.663 447.7C708.07 441.847 703.121 434.729 697.248 428.391C684.328 414.452 673.259 398.626 660.317 384.864C661.693 385.094 663.29 385.485 664.675 385.784C669.881 386.974 674.417 388.1 679.427 390.084C688.244 405.124 699.151 419.945 707.773 435.305C709.246 437.931 713.856 445.112 714.663 447.7Z" fill="#00F5FF"/>
<path d="M648.278 368.056C643.666 361.949 638.155 355.529 633.32 349.445C639.83 352.263 649.172 358.095 655.503 361.837C662.053 365.668 668.808 369.914 675.308 373.871C669.035 371.788 655.065 369.172 648.278 368.056Z" fill="#00F5FF"/>
<path d="M776.502 466.348C770.708 461.973 752.711 428.599 749.299 420.343C760.02 429.229 773.937 452.479 776.502 466.348Z" fill="#00F5FF"/>
</g>
<defs>
<clipPath id="clip0_234_3">
<rect width="853" height="874" rx="426.5" fill="white"/>
</clipPath>
</defs>
</svg>
